<svg xmlns="http://www.w3.org/2000/svg" viewBox="0 0 602 79"><defs><style>.a{fill:#fff;}.b{opacity:0.4;}</style></defs><title>img-topo-cadeia</title><path class="a" d="M306.87,43.26a5.21,5.21,0,0,1-2.08.35c-2.79,0-4.23-1.74-4.23-4A4.12,4.12,0,0,1,305,35.28a4.77,4.77,0,0,1,2,.36l-.37,1.45a3.94,3.94,0,0,0-1.54-.3,2.43,2.43,0,0,0-2.58,2.67,2.41,2.41,0,0,0,2.59,2.64,4.55,4.55,0,0,0,1.52-.26Z"/><path class="a" d="M310.08,41.42l-.58,2.08h-1.89l2.47-8.08h2.4L315,43.49h-2l-.62-2.08ZM312.13,40l-.5-1.72c-.14-.48-.29-1.08-.41-1.56h0c-.12.48-.24,1.09-.37,1.56L310.34,40Z"/><path class="a" d="M316.07,35.52a16.33,16.33,0,0,1,2.47-.17,5.2,5.2,0,0,1,3.31.86,3.57,3.57,0,0,1,1.37,3,4.1,4.1,0,0,1-1.34,3.27,5.8,5.8,0,0,1-3.73,1,15.69,15.69,0,0,1-2.08-.12Zm1.83,6.6a3.35,3.35,0,0,0,.64,0,2.51,2.51,0,0,0,2.73-2.83,2.32,2.32,0,0,0-2.54-2.57,3.83,3.83,0,0,0-.83.07Z"/><path class="a" d="M329.23,40.07h-3V42h3.32v1.5h-5.16V35.41h5v1.5h-3.15v1.68h3Z"/><path class="a" d="M332.66,35.41v8.08h-1.83V35.41Z"/><path class="a" d="M336.13,41.42l-.58,2.08h-1.89l2.47-8.08h2.4L341,43.49h-2l-.62-2.08ZM338.18,40l-.5-1.72c-.14-.48-.29-1.08-.41-1.56h0c-.12.48-.24,1.09-.37,1.56L336.39,40Z"/><path class="a" d="M344.54,35.52a16.33,16.33,0,0,1,2.47-.17,5.2,5.2,0,0,1,3.31.86,3.57,3.57,0,0,1,1.37,3,4.1,4.1,0,0,1-1.34,3.27,5.8,5.8,0,0,1-3.73,1,15.69,15.69,0,0,1-2.08-.12Zm1.83,6.6a3.35,3.35,0,0,0,.64,0,2.51,2.51,0,0,0,2.73-2.83,2.32,2.32,0,0,0-2.54-2.57,3.83,3.83,0,0,0-.83.07Z"/><path class="a" d="M357.71,40.07h-3V42h3.32v1.5H352.9V35.41h5v1.5h-3.15v1.68h3Z"/><path class="a" d="M363.19,43.49l-2.59-8.08h2l1,3.42c.28,1,.53,1.88.72,2.89h0c.2-1,.46-1.93.73-2.85l1-3.45H368l-2.72,8.08Z"/><path class="a" d="M370.15,41.42l-.58,2.08h-1.89l2.47-8.08h2.4l2.51,8.08h-2l-.62-2.08ZM372.2,40l-.5-1.72c-.14-.48-.29-1.08-.41-1.56h0c-.12.48-.24,1.09-.37,1.56L370.41,40Z"/><path class="a" d="M376.14,35.41H378V42h3.21v1.54h-5Z"/><path class="a" d="M389.21,39.37c0,2.65-1.61,4.26-4,4.26s-3.8-1.81-3.8-4.11a3.91,3.91,0,0,1,3.93-4.23A3.77,3.77,0,0,1,389.21,39.37Zm-5.84.11c0,1.58.74,2.7,2,2.7s1.94-1.17,1.94-2.75-.7-2.7-2-2.7S383.37,37.9,383.37,39.47Z"/><path class="a" d="M390.42,35.52a16,16,0,0,1,2.43-.17,4.12,4.12,0,0,1,2.61.64,2.05,2.05,0,0,1,.74,1.69,2.14,2.14,0,0,1-1.43,2v0a2,2,0,0,1,1.08,1.51c.25.91.5,2,.66,2.28h-1.87a10.21,10.21,0,0,1-.56-1.88c-.22-1-.56-1.28-1.31-1.3h-.55v3.18h-1.81ZM392.23,39h.72c.91,0,1.45-.46,1.45-1.16s-.5-1.12-1.34-1.13a4.59,4.59,0,0,0-.83.06Z"/><path class="a" d="M248.88,47.4c0,.3,0,.56,0,.77a3.66,3.66,0,0,1-.08.54,1.55,1.55,0,0,1-.14.39,1.88,1.88,0,0,1-.29.37,3.71,3.71,0,0,1-.77.53,8.9,8.9,0,0,1-1.39.63,12.1,12.1,0,0,1-1.88.5,12.39,12.39,0,0,1-2.29.2,12.07,12.07,0,0,1-4.34-.74,8.56,8.56,0,0,1-3.29-2.22,9.92,9.92,0,0,1-2.08-3.68,16.49,16.49,0,0,1-.72-5.14,16.27,16.27,0,0,1,.8-5.3,11,11,0,0,1,2.23-3.89A9.31,9.31,0,0,1,238,28a11.58,11.58,0,0,1,4.41-.81,10.53,10.53,0,0,1,1.88.16,11.47,11.47,0,0,1,1.67.43,8.36,8.36,0,0,1,1.38.61,4.15,4.15,0,0,1,.86.59,2,2,0,0,1,.33.41,1.51,1.51,0,0,1,.15.42,4.86,4.86,0,0,1,.08.6q0,.34,0,.85c0,.36,0,.67,0,.92a2.41,2.41,0,0,1-.13.62.86.86,0,0,1-.22.34.43.43,0,0,1-.29.11,1.25,1.25,0,0,1-.69-.32,11.43,11.43,0,0,0-1.08-.71,8.75,8.75,0,0,0-1.57-.71,6.64,6.64,0,0,0-2.18-.32,5.16,5.16,0,0,0-4.35,2.2,7.67,7.67,0,0,0-1.17,2.56,14.9,14.9,0,0,0,0,7,6.87,6.87,0,0,0,1.21,2.49,4.91,4.91,0,0,0,1.9,1.46,6.26,6.26,0,0,0,2.51.48,7.14,7.14,0,0,0,2.19-.3,9.1,9.1,0,0,0,1.58-.66q.66-.36,1.09-.65a1.34,1.34,0,0,1,.66-.29.51.51,0,0,1,.29.07.54.54,0,0,1,.18.29,2.82,2.82,0,0,1,.11.61C248.87,46.62,248.88,47,248.88,47.4Z"/><path class="a" d="M271.76,38.89a16,16,0,0,1-.84,5.51,9.36,9.36,0,0,1-2.42,3.74,9.71,9.71,0,0,1-3.83,2.13,18.78,18.78,0,0,1-5.37.68h-5.59a1.47,1.47,0,0,1-1-.35,1.44,1.44,0,0,1-.41-1.15V29a1.44,1.44,0,0,1,.41-1.15,1.48,1.48,0,0,1,1-.35h6a16.8,16.8,0,0,1,5.31.73,9.65,9.65,0,0,1,3.67,2.17A9.31,9.31,0,0,1,271,34,14.19,14.19,0,0,1,271.76,38.89Zm-4.92.16a11.73,11.73,0,0,0-.39-3.09,6.58,6.58,0,0,0-1.25-2.48A5.77,5.77,0,0,0,263,31.84a8.94,8.94,0,0,0-3.54-.59H257V47.18h2.48a9.31,9.31,0,0,0,3.29-.51,5.48,5.48,0,0,0,2.24-1.53,6.61,6.61,0,0,0,1.34-2.54A12.71,12.71,0,0,0,266.83,39.06Z"/><path class="a" d="M286.78,50.11a1.54,1.54,0,0,1-.24.5.9.9,0,0,1-.47.29,3.74,3.74,0,0,1-.89.13q-.56,0-1.47,0h-1.24c-.34,0-.64,0-.88,0a3,3,0,0,1-.59-.11,1.39,1.39,0,0,1-.38-.18.74.74,0,0,1-.24-.26,2.13,2.13,0,0,1-.15-.39l-7-20.76a5.53,5.53,0,0,1-.26-1,.6.6,0,0,1,.18-.57,1.38,1.38,0,0,1,.77-.23c.36,0,.87,0,1.52,0s1,0,1.3,0a2.88,2.88,0,0,1,.72.13.62.62,0,0,1,.35.27,3,3,0,0,1,.19.45l5.7,18.06h0l5.59-18a1.91,1.91,0,0,1,.18-.5.73.73,0,0,1,.37-.3,2.52,2.52,0,0,1,.75-.14q.49,0,1.34,0a12.13,12.13,0,0,1,1.29.05,1,1,0,0,1,.63.26.71.71,0,0,1,.11.59,6.73,6.73,0,0,1-.28,1Z"/><g class="b"><circle class="a" cx="80.21" cy="0.92" r="0.67"/><path class="a" d="M88.87,1.59a.68.68,0,0,0,.68-.67.68.68,0,0,0-1.36,0A.68.68,0,0,0,88.87,1.59Z"/><path class="a" d="M97.53,1.66a.75.75,0,1,0,0-1.5.76.76,0,0,0-.75.75A.76.76,0,0,0,97.53,1.66Z"/><path class="a" d="M106.19,1.18a.25.25,0,0,0,.25-.26.26.26,0,0,0-.25-.27.27.27,0,0,0-.28.27A.27.27,0,0,0,106.19,1.18Z"/><path class="a" d="M114.86,1.13a.22.22,0,0,0,.22-.21.23.23,0,0,0-.22-.22.21.21,0,0,0-.22.22A.21.21,0,0,0,114.86,1.13Z"/><path class="a" d="M123.51,1.13a.21.21,0,0,0,.22-.21.21.21,0,0,0-.22-.22.22.22,0,0,0-.22.22A.22.22,0,0,0,123.51,1.13Z"/><path class="a" d="M132.17,1.13a.21.21,0,0,0,.21-.21.21.21,0,0,0-.21-.22.22.22,0,0,0-.22.22A.22.22,0,0,0,132.17,1.13Z"/><path class="a" d="M140.83,1.13a.21.21,0,0,0,.2-.21.21.21,0,0,0-.2-.22.22.22,0,0,0-.22.22A.22.22,0,0,0,140.83,1.13Z"/><circle class="a" cx="149.49" cy="0.92" r="0.24"/><path class="a" d="M158.16,1.16a.23.23,0,0,0,.22-.24.23.23,0,0,0-.22-.24.24.24,0,0,0-.25.24A.24.24,0,0,0,158.16,1.16Z"/><path class="a" d="M166.81,1.13A.21.21,0,0,0,167,.92a.22.22,0,0,0-.21-.22.22.22,0,0,0-.22.22A.22.22,0,0,0,166.81,1.13Z"/><ellipse class="a" cx="175.46" cy="0.92" rx="0.53" ry="0.53"/><path class="a" d="M184.12,1.4a.48.48,0,1,0,0-1,.5.5,0,0,0-.49.49A.5.5,0,0,0,184.12,1.4Z"/><path class="a" d="M192.79,1.44a.53.53,0,1,0-.53-.52A.52.52,0,0,0,192.79,1.44Z"/><path class="a" d="M201.44,1.21a.29.29,0,0,0,0-.58.29.29,0,0,0-.29.29A.28.28,0,0,0,201.44,1.21Z"/><path class="a" d="M210.09,1.13a.23.23,0,0,0,.23-.21.23.23,0,0,0-.23-.22.21.21,0,0,0-.2.22A.21.21,0,0,0,210.09,1.13Z"/><path class="a" d="M218.76,1.25a.33.33,0,0,0,.34-.33.34.34,0,0,0-.67,0A.33.33,0,0,0,218.76,1.25Z"/><path class="a" d="M227.42,1.3a.37.37,0,0,0,.38-.38.37.37,0,0,0-.37-.39.39.39,0,0,0,0,.77Z"/><path class="a" d="M236.07,1.23a.32.32,0,0,0,.33-.31.33.33,0,0,0-.33-.31.31.31,0,0,0-.31.31A.31.31,0,0,0,236.07,1.23Z"/><path class="a" d="M244.74,1.16A.24.24,0,0,0,245,.92a.25.25,0,0,0-.25-.24.24.24,0,0,0-.23.24A.24.24,0,0,0,244.74,1.16Z"/><circle class="a" cx="253.4" cy="0.92" r="0.22"/><path class="a" d="M262.06,1.13a.21.21,0,0,0,.21-.21.21.21,0,0,0-.21-.22.23.23,0,0,0-.23.22A.23.23,0,0,0,262.06,1.13Z"/><path class="a" d="M270.71,1.11a.21.21,0,0,0,.21-.19.21.21,0,0,0-.21-.2.2.2,0,0,0,0,.39Z"/><path class="a" d="M279.38,1a.1.1,0,0,0,.1-.1.1.1,0,0,0-.1-.1.1.1,0,0,0-.1.1A.11.11,0,0,0,279.38,1Z"/><circle class="a" cx="288.04" cy="0.92" r="0.1"/><path class="a" d="M296.7,1.06a.14.14,0,0,0,.13-.14.14.14,0,0,0-.13-.14.15.15,0,0,0-.15.14A.15.15,0,0,0,296.7,1.06Z"/><path class="a" d="M305.36,1.08a.18.18,0,0,0,.18-.16.17.17,0,0,0-.18-.17.16.16,0,0,0-.16.17A.16.16,0,0,0,305.36,1.08Z"/><path class="a" d="M314,1.08a.17.17,0,0,0,.16-.16A.17.17,0,0,0,314,.75a.17.17,0,1,0,0,.33Z"/><path class="a" d="M322.68,1.13a.21.21,0,0,0,.2-.21.21.21,0,0,0-.2-.22.22.22,0,0,0-.22.22A.22.22,0,0,0,322.68,1.13Z"/><path class="a" d="M331.33,1.66a.75.75,0,0,0,.75-.74.76.76,0,0,0-.75-.75.74.74,0,0,0-.74.75A.74.74,0,0,0,331.33,1.66Z"/><path class="a" d="M340,1.25a.33.33,0,0,0,.34-.33A.33.33,0,0,0,340,.58a.34.34,0,0,0-.33.34A.33.33,0,0,0,340,1.25Z"/><circle class="a" cx="80.22" cy="9.58" r="0.79"/><path class="a" d="M88.87,10.37a.79.79,0,1,0,0-1.58.79.79,0,0,0,0,1.58Z"/><circle class="a" cx="97.53" cy="9.58" r="0.77"/><circle class="a" cx="106.19" cy="9.58" r="0.43"/><path class="a" d="M114.86,9.8a.23.23,0,0,0,.22-.22.22.22,0,0,0-.22-.21.21.21,0,0,0-.22.21A.21.21,0,0,0,114.86,9.8Z"/><path class="a" d="M123.51,9.8a.21.21,0,0,0,.22-.22.21.21,0,0,0-.22-.21.22.22,0,0,0-.22.21A.22.22,0,0,0,123.51,9.8Z"/><path class="a" d="M132.17,9.82a.23.23,0,0,0,.23-.24.23.23,0,0,0-.23-.24.23.23,0,0,0-.24.24A.24.24,0,0,0,132.17,9.82Z"/><path class="a" d="M140.83,9.84a.26.26,0,0,0,.25-.26.27.27,0,0,0-.25-.26.27.27,0,0,0-.28.26A.27.27,0,0,0,140.83,9.84Z"/><path class="a" d="M149.49,9.86a.28.28,0,0,0,.29-.29.29.29,0,0,0-.29-.29.29.29,0,0,0-.29.29A.29.29,0,0,0,149.49,9.86Z"/><path class="a" d="M158.16,10a.39.39,0,1,0-.4-.39A.39.39,0,0,0,158.16,10Z"/><path class="a" d="M166.81,10a.43.43,0,1,0-.44-.43A.43.43,0,0,0,166.81,10Z"/><circle class="a" cx="175.46" cy="9.58" r="0.53"/><path class="a" d="M184.12,10a.43.43,0,1,0,0-.86.43.43,0,0,0,0,.86Z"/><path class="a" d="M192.79,10.18a.6.6,0,0,0,0-1.2.6.6,0,0,0,0,1.2Z"/><path class="a" d="M201.44,10a.46.46,0,0,0,.46-.45.47.47,0,0,0-.46-.46.47.47,0,0,0-.46.46A.46.46,0,0,0,201.44,10Z"/><path class="a" d="M210.09,9.89a.32.32,0,0,0,.32-.32.31.31,0,0,0-.32-.31.31.31,0,0,0-.3.31A.31.31,0,0,0,210.09,9.89Z"/><path class="a" d="M218.76,10.22a.65.65,0,1,0,0-1.3.65.65,0,1,0,0,1.3Z"/><ellipse class="a" cx="227.42" cy="9.58" rx="0.67" ry="0.67"/><path class="a" d="M236.07,10.11a.52.52,0,0,0,.53-.53.52.52,0,0,0-1,0A.53.53,0,0,0,236.07,10.11Z"/><path class="a" d="M244.74,9.8a.23.23,0,0,0,.23-.22.23.23,0,0,0-.23-.21.21.21,0,0,0-.21.21A.21.21,0,0,0,244.74,9.8Z"/><circle class="a" cx="253.4" cy="9.58" r="0.22"/><path class="a" d="M262.06,9.8a.21.21,0,0,0,.21-.22.21.21,0,0,0-.21-.21.23.23,0,0,0-.23.21A.23.23,0,0,0,262.06,9.8Z"/><path class="a" d="M270.71,9.8a.23.23,0,0,0,.23-.22.23.23,0,0,0-.23-.21.21.21,0,0,0-.21.21A.21.21,0,0,0,270.71,9.8Z"/><path class="a" d="M279.38,9.8a.21.21,0,0,0,.22-.22.21.21,0,0,0-.22-.21.22.22,0,0,0-.22.21A.22.22,0,0,0,279.38,9.8Z"/><ellipse class="a" cx="288.04" cy="9.58" rx="0.15" ry="0.14"/><path class="a" d="M296.7,9.72a.14.14,0,0,0,.13-.14.13.13,0,0,0-.13-.14.14.14,0,0,0-.15.14A.15.15,0,0,0,296.7,9.72Z"/><path class="a" d="M305.36,9.74a.17.17,0,1,0,0-.33.17.17,0,0,0,0,.33Z"/><path class="a" d="M314,9.74a.17.17,0,0,0,0-.33.17.17,0,1,0,0,.33Z"/><path class="a" d="M322.68,9.76a.18.18,0,0,0,.18-.19.19.19,0,0,0-.18-.19.2.2,0,0,0-.2.19A.19.19,0,0,0,322.68,9.76Z"/><circle class="a" cx="331.33" cy="9.58" r="0.49"/><path class="a" d="M340,9.86a.29.29,0,0,0,.3-.29.29.29,0,0,0-.58,0A.29.29,0,0,0,340,9.86Z"/><ellipse class="a" cx="80.21" cy="18.23" rx="1.29" ry="1.3"/><path class="a" d="M88.87,19.53a1.3,1.3,0,1,0,0-2.59,1.3,1.3,0,0,0,0,2.59Z"/><path class="a" d="M97.53,19.29a1.06,1.06,0,1,0-1-1.06A1.06,1.06,0,0,0,97.53,19.29Z"/><path class="a" d="M106.19,19.27a1,1,0,1,0-1-1A1,1,0,0,0,106.19,19.27Z"/><path class="a" d="M114.86,19a.74.74,0,1,0,0-1.48.74.74,0,1,0,0,1.48Z"/><path class="a" d="M123.51,18.65a.41.41,0,0,0,0-.82.41.41,0,0,0,0,.82Z"/><path class="a" d="M132.17,18.52a.29.29,0,0,0,0-.57.29.29,0,1,0,0,.57Z"/><path class="a" d="M140.83,18.58a.34.34,0,0,0,0-.68.34.34,0,1,0,0,.68Z"/><path class="a" d="M149.49,18.62a.39.39,0,0,0,.39-.39.39.39,0,0,0-.39-.38.37.37,0,0,0-.38.38A.37.37,0,0,0,149.49,18.62Z"/><path class="a" d="M158.16,18.69a.45.45,0,0,0,.44-.46.44.44,0,0,0-.44-.45.45.45,0,0,0-.46.45A.45.45,0,0,0,158.16,18.69Z"/><path class="a" d="M166.81,18.6a.36.36,0,0,0,.35-.36.35.35,0,0,0-.35-.36.37.37,0,0,0-.38.36A.38.38,0,0,0,166.81,18.6Z"/><path class="a" d="M175.46,19a.77.77,0,1,0,0-1.54.77.77,0,0,0,0,1.54Z"/><path class="a" d="M184.12,18.76a.53.53,0,1,0,0-1.06.53.53,0,1,0,0,1.06Z"/><path class="a" d="M192.79,18.69a.45.45,0,0,0,.44-.46.44.44,0,0,0-.44-.45.45.45,0,0,0-.46.45A.45.45,0,0,0,192.79,18.69Z"/><path class="a" d="M201.44,18.67a.43.43,0,1,0-.43-.44A.44.44,0,0,0,201.44,18.67Z"/><path class="a" d="M210.09,21.45a3.22,3.22,0,1,0-3.21-3.22A3.21,3.21,0,0,0,210.09,21.45Z"/><path class="a" d="M218.76,19a.72.72,0,1,0-.72-.72A.73.73,0,0,0,218.76,19Z"/><path class="a" d="M227.42,18.86a.63.63,0,0,0,0-1.25.63.63,0,0,0,0,1.25Z"/><path class="a" d="M236.07,18.76a.53.53,0,1,0,0-1.06.53.53,0,0,0,0,1.06Z"/><path class="a" d="M244.74,18.5a.26.26,0,1,0,0-.53.26.26,0,0,0,0,.53Z"/><ellipse class="a" cx="253.4" cy="18.23" rx="0.22" ry="0.21"/><path class="a" d="M262.06,18.45a.21.21,0,0,0,0-.43.21.21,0,1,0,0,.43Z"/><path class="a" d="M270.71,18.45a.21.21,0,1,0,0-.43.21.21,0,0,0,0,.43Z"/><path class="a" d="M279.38,18.45a.21.21,0,1,0,0-.43.21.21,0,1,0,0,.43Z"/><circle class="a" cx="288.04" cy="18.23" r="0.21"/><path class="a" d="M296.7,18.55a.31.31,0,0,0,.31-.32.31.31,0,0,0-.31-.31.33.33,0,0,0-.33.31A.33.33,0,0,0,296.7,18.55Z"/><path class="a" d="M305.36,18.55a.31.31,0,0,0,.31-.32.31.31,0,0,0-.31-.31.31.31,0,0,0-.31.31A.32.32,0,0,0,305.36,18.55Z"/><path class="a" d="M314,18.43a.19.19,0,0,0,.19-.19A.18.18,0,0,0,314,18a.2.2,0,0,0-.2.19A.2.2,0,0,0,314,18.43Z"/><path class="a" d="M322.68,18.69a.46.46,0,0,0,.45-.46.46.46,0,1,0-.45.46Z"/><path class="a" d="M331.33,18.69a.45.45,0,0,0,.46-.46.45.45,0,0,0-.46-.45.46.46,0,0,0-.46.45A.47.47,0,0,0,331.33,18.69Z"/><path class="a" d="M340,18.48a.23.23,0,0,0,.24-.24.24.24,0,1,0-.47,0A.23.23,0,0,0,340,18.48Z"/><ellipse class="a" cx="80.21" cy="26.9" rx="1.42" ry="1.42"/><path class="a" d="M88.87,28.31a1.42,1.42,0,1,0-1.4-1.41A1.42,1.42,0,0,0,88.87,28.31Z"/><ellipse class="a" cx="80.68" cy="26.9" rx="2.57" ry="2.49"/><circle class="a" cx="106.19" cy="26.9" r="1.78"/><path class="a" d="M114.86,28.17a1.27,1.27,0,1,0-1.28-1.27A1.28,1.28,0,0,0,114.86,28.17Z"/><path class="a" d="M123.51,28a1.06,1.06,0,1,0,0-2.11,1.06,1.06,0,1,0,0,2.11Z"/><path class="a" d="M132.17,27.38a.48.48,0,1,0,0-1,.48.48,0,0,0,0,1Z"/><path class="a" d="M140.83,27.33a.43.43,0,0,0,.43-.43.44.44,0,1,0-.43.43Z"/><circle class="a" cx="149.48" cy="26.89" r="0.43"/><path class="a" d="M158.16,27.33a.43.43,0,0,0,.42-.43.43.43,0,1,0-.86,0A.43.43,0,0,0,158.16,27.33Z"/><path class="a" d="M166.81,27.83a.94.94,0,1,0-1-.93A.94.94,0,0,0,166.81,27.83Z"/><path class="a" d="M175.46,27.56a.66.66,0,0,0,.66-.67.66.66,0,1,0-1.32,0A.66.66,0,0,0,175.46,27.56Z"/><path class="a" d="M184.12,27.69a.8.8,0,1,0-.78-.79A.8.8,0,0,0,184.12,27.69Z"/><path class="a" d="M192.79,28.46a1.56,1.56,0,1,0-1.57-1.56A1.57,1.57,0,0,0,192.79,28.46Z"/><ellipse class="a" cx="201.44" cy="26.89" rx="2.23" ry="2.23"/><path class="a" d="M210.09,28.09a1.2,1.2,0,1,0-1.19-1.2A1.19,1.19,0,0,0,210.09,28.09Z"/><path class="a" d="M218.76,28a1.08,1.08,0,1,0-1.08-1.08A1.09,1.09,0,0,0,218.76,28Z"/><path class="a" d="M227.42,27.09a.19.19,0,1,0,0-.39.19.19,0,1,0,0,.39Z"/><path class="a" d="M236.07,28a1.06,1.06,0,1,0-1-1.05A1.05,1.05,0,0,0,236.07,28Z"/><circle class="a" cx="253.4" cy="26.89" r="0.65"/><path class="a" d="M262.06,27.18a.29.29,0,0,0,0-.57.29.29,0,1,0,0,.57Z"/><path class="a" d="M270.71,27.14a.26.26,0,0,0,.25-.24.25.25,0,0,0-.25-.24.24.24,0,0,0-.23.24A.25.25,0,0,0,270.71,27.14Z"/><path class="a" d="M279.38,27.14a.25.25,0,0,0,.24-.24.24.24,0,1,0-.49,0A.25.25,0,0,0,279.38,27.14Z"/><path class="a" d="M288,27.14a.25.25,0,0,0,.23-.24.24.24,0,0,0-.23-.24.25.25,0,0,0-.25.24A.25.25,0,0,0,288,27.14Z"/><path class="a" d="M296.7,27.26a.36.36,0,0,0,0-.72.36.36,0,1,0,0,.72Z"/><path class="a" d="M305.36,27.3a.41.41,0,0,0,0-.82.41.41,0,0,0,0,.82Z"/><ellipse class="a" cx="314.02" cy="26.9" rx="0.45" ry="0.46"/><path class="a" d="M322.68,27.74a.84.84,0,1,0-.85-.84A.84.84,0,0,0,322.68,27.74Z"/><path class="a" d="M331.33,27.76a.86.86,0,1,0-.86-.86A.86.86,0,0,0,331.33,27.76Z"/><path class="a" d="M340,27.81A.91.91,0,1,0,340,26a.91.91,0,0,0,0,1.83Z"/><circle class="a" cx="348.66" cy="26.9" r="1.68"/><circle class="a" cx="357.31" cy="26.9" r="0.53"/><path class="a" d="M80.21,36.58a1,1,0,1,0-1-1A1,1,0,0,0,80.21,36.58Z"/><path class="a" d="M88.87,36.58a1,1,0,1,0-1-1A1,1,0,0,0,88.87,36.58Z"/><circle class="a" cx="97.53" cy="35.55" r="0.67"/><path class="a" d="M106.19,37.88a2.33,2.33,0,1,0-2.34-2.33A2.33,2.33,0,0,0,106.19,37.88Z"/><path class="a" d="M114.86,36.42a.87.87,0,1,0-.86-.87A.86.86,0,0,0,114.86,36.42Z"/><circle class="a" cx="123.51" cy="35.55" r="1.15"/><path class="a" d="M132.17,37a1.42,1.42,0,1,0-1.42-1.42A1.41,1.41,0,0,0,132.17,37Z"/><path class="a" d="M140.83,37.72a2.16,2.16,0,1,0-2.16-2.16A2.16,2.16,0,0,0,140.83,37.72Z"/><path class="a" d="M149.49,38.61a3.05,3.05,0,1,0-3-3.05A3,3,0,0,0,149.49,38.61Z"/><path class="a" d="M158.16,37.64a2.09,2.09,0,1,0-2.1-2.09A2.08,2.08,0,0,0,158.16,37.64Z"/><ellipse class="a" cx="166.81" cy="35.55" rx="3.31" ry="3.32"/><ellipse class="a" cx="175.46" cy="35.56" rx="2.82" ry="2.83"/><path class="a" d="M184.12,37.5a1.95,1.95,0,1,0-1.93-1.95A2,2,0,0,0,184.12,37.5Z"/><path class="a" d="M192.79,36.8a1.25,1.25,0,0,0,0-2.49,1.25,1.25,0,1,0,0,2.49Z"/><path class="a" d="M201.44,36.66a1.11,1.11,0,1,0-1.1-1.11A1.1,1.1,0,0,0,201.44,36.66Z"/><path class="a" d="M210.09,36.25a.69.69,0,1,0-.68-.7A.7.7,0,0,0,210.09,36.25Z"/><path class="a" d="M218.76,37.35a1.8,1.8,0,1,0-1.8-1.8A1.8,1.8,0,0,0,218.76,37.35Z"/><ellipse class="a" cx="227.42" cy="35.55" rx="0.99" ry="0.98"/><path class="a" d="M236.07,35.94a.39.39,0,1,0,0-.77.39.39,0,0,0,0,.77Z"/><circle class="a" cx="253.4" cy="35.56" r="0.45"/><path class="a" d="M270.71,36a.46.46,0,1,0-.45-.46A.46.46,0,0,0,270.71,36Z"/><ellipse class="a" cx="279.38" cy="35.55" rx="0.33" ry="0.34"/><circle class="a" cx="288.04" cy="35.55" r="0.41"/><path class="a" d="M296.7,36.3a.74.74,0,1,0-.75-.75A.74.74,0,0,0,296.7,36.3Z"/><path class="a" d="M357.31,35.87a.31.31,0,1,0,0-.63.31.31,0,0,0,0,.63Z"/><path class="a" d="M80.21,44.76a.55.55,0,1,0-.55-.55A.55.55,0,0,0,80.21,44.76Z"/><path class="a" d="M88.87,44.76a.55.55,0,0,0,0-1.1.55.55,0,1,0,0,1.1Z"/><circle class="a" cx="97.53" cy="44.21" r="0.8"/><path class="a" d="M106.19,44.5a.29.29,0,0,0,0-.58.29.29,0,1,0,0,.58Z"/><path class="a" d="M114.86,46.71a2.5,2.5,0,1,0-2.52-2.5A2.49,2.49,0,0,0,114.86,46.71Z"/><path class="a" d="M123.51,45.39a1.17,1.17,0,1,0-1.18-1.18A1.17,1.17,0,0,0,123.51,45.39Z"/><path class="a" d="M132.17,45.49a1.27,1.27,0,0,0,0-2.55,1.27,1.27,0,1,0,0,2.55Z"/><path class="a" d="M140.83,46.54a2.33,2.33,0,1,0-2.33-2.33A2.33,2.33,0,0,0,140.83,46.54Z"/><circle class="a" cx="149.49" cy="44.21" r="1.83"/><path class="a" d="M158.16,46.07a1.85,1.85,0,1,0-1.87-1.85A1.85,1.85,0,0,0,158.16,46.07Z"/><path class="a" d="M166.81,45.44a1.23,1.23,0,1,0-1.24-1.23A1.23,1.23,0,0,0,166.81,45.44Z"/><circle class="a" cx="175.46" cy="44.21" r="0.55"/><path class="a" d="M184.12,44.57a.37.37,0,0,0,.38-.36.37.37,0,0,0-.37-.36.35.35,0,0,0-.35.36A.35.35,0,0,0,184.12,44.57Z"/><path class="a" d="M192.79,44.72a.52.52,0,0,0,.51-.51.51.51,0,0,0-.51-.5.5.5,0,0,0-.51.5A.51.51,0,0,0,192.79,44.72Z"/><circle class="a" cx="201.44" cy="44.21" r="0.17"/><path class="a" d="M210.09,45.12a.91.91,0,1,0-.9-.91A.91.91,0,0,0,210.09,45.12Z"/><path class="a" d="M218.76,45a.79.79,0,1,0-.78-.8A.78.78,0,0,0,218.76,45Z"/><path class="a" d="M227.42,45.92a1.7,1.7,0,1,0-1.7-1.71A1.7,1.7,0,0,0,227.42,45.92Z"/><path class="a" d="M80.21,53.5a.63.63,0,0,0,0-1.25.63.63,0,1,0,0,1.25Z"/><path class="a" d="M88.87,53.5a.63.63,0,1,0-.62-.62A.62.62,0,0,0,88.87,53.5Z"/><circle class="a" cx="97.53" cy="52.87" r="1.08"/><path class="a" d="M106.19,53.74a.87.87,0,0,0,0-1.73.87.87,0,1,0,0,1.73Z"/><path class="a" d="M114.86,56.52a3.65,3.65,0,1,0-3.66-3.65A3.65,3.65,0,0,0,114.86,56.52Z"/><path class="a" d="M123.51,54.87a2,2,0,1,0-2-2A2,2,0,0,0,123.51,54.87Z"/><path class="a" d="M132.17,53.83a1,1,0,1,0,0-1.92,1,1,0,0,0,0,1.92Z"/><path class="a" d="M140.83,53.76a.89.89,0,0,0,0-1.78.89.89,0,1,0,0,1.78Z"/><ellipse class="a" cx="149.49" cy="52.87" rx="0.49" ry="0.48"/><path class="a" d="M158.16,53.3a.43.43,0,0,0,.42-.43.43.43,0,1,0-.86,0A.43.43,0,0,0,158.16,53.3Z"/><path class="a" d="M166.81,53.23a.36.36,0,0,0,0-.72.36.36,0,1,0,0,.72Z"/><ellipse class="a" cx="175.46" cy="52.88" rx="0.24" ry="0.24"/><path class="a" d="M184.12,53.11a.24.24,0,1,0,0-.47.24.24,0,0,0,0,.47Z"/><path class="a" d="M192.79,53.11a.24.24,0,1,0-.24-.24A.23.23,0,0,0,192.79,53.11Z"/><circle class="a" cx="201.44" cy="52.87" r="0.36"/><path class="a" d="M210.09,53.42a.55.55,0,0,0,0-1.11.55.55,0,0,0,0,1.11Z"/><circle class="a" cx="218.76" cy="52.87" r="1.18"/><path class="a" d="M227.42,54.12a1.25,1.25,0,0,0,0-2.5,1.25,1.25,0,1,0,0,2.5Z"/><path class="a" d="M236.07,54a1.15,1.15,0,1,0-1.15-1.15A1.16,1.16,0,0,0,236.07,54Z"/><path class="a" d="M244.74,54.07a1.2,1.2,0,1,0,0-2.4,1.2,1.2,0,1,0,0,2.4Z"/><path class="a" d="M253.4,54.29A1.42,1.42,0,1,0,252,52.88,1.42,1.42,0,0,0,253.4,54.29Z"/><path class="a" d="M262.06,55.49a2.61,2.61,0,1,0-2.62-2.61A2.61,2.61,0,0,0,262.06,55.49Z"/><path class="a" d="M270.71,54.29a1.42,1.42,0,1,0-1.4-1.42A1.42,1.42,0,0,0,270.71,54.29Z"/><path class="a" d="M279.38,53.55a.67.67,0,1,0,0-1.35.67.67,0,0,0,0,1.35Z"/><path class="a" d="M288,53.55a.67.67,0,0,0,0-1.35.67.67,0,1,0,0,1.35Z"/><path class="a" d="M296.7,53.71a.84.84,0,1,0-.85-.84A.84.84,0,0,0,296.7,53.71Z"/><path class="a" d="M305.36,53.3a.43.43,0,0,0,.43-.43.43.43,0,0,0-.43-.44.44.44,0,0,0-.44.44A.44.44,0,0,0,305.36,53.3Z"/><path class="a" d="M314,53.33a.46.46,0,1,0-.45-.45A.45.45,0,0,0,314,53.33Z"/><path class="a" d="M322.68,53.42a.55.55,0,1,0-.55-.55A.55.55,0,0,0,322.68,53.42Z"/><ellipse class="a" cx="331.33" cy="52.87" rx="0.6" ry="0.6"/><path class="a" d="M340,54.25a1.37,1.37,0,1,0-1.36-1.37A1.37,1.37,0,0,0,340,54.25Z"/><path class="a" d="M348.66,54.25a1.37,1.37,0,1,0-1.38-1.37A1.37,1.37,0,0,0,348.66,54.25Z"/><ellipse class="a" cx="357.31" cy="52.88" rx="1.92" ry="1.93"/><path class="a" d="M123.51,61.8a.27.27,0,0,0,0-.53.27.27,0,0,0,0,.53Z"/><ellipse class="a" cx="132.17" cy="61.53" rx="0.45" ry="0.46"/><path class="a" d="M140.83,62a.46.46,0,0,0,0-.93.46.46,0,0,0,0,.93Z"/><ellipse class="a" cx="149.49" cy="61.53" rx="0.19" ry="0.2"/><path class="a" d="M158.16,61.84a.31.31,0,0,0,0-.62.31.31,0,1,0,0,.62Z"/><path class="a" d="M166.81,61.84a.31.31,0,1,0-.32-.31A.31.31,0,0,0,166.81,61.84Z"/><path class="a" d="M175.46,61.75a.22.22,0,0,0,0-.44.22.22,0,0,0,0,.44Z"/><path class="a" d="M184.12,61.75a.22.22,0,1,0,0-.44.22.22,0,0,0,0,.44Z"/><path class="a" d="M192.79,61.75a.22.22,0,0,0,0-.44.22.22,0,0,0,0,.44Z"/><path class="a" d="M201.44,61.75a.22.22,0,1,0-.21-.22A.23.23,0,0,0,201.44,61.75Z"/><path class="a" d="M210.09,61.75a.22.22,0,1,0,0-.44.22.22,0,0,0,0,.44Z"/><path class="a" d="M218.76,61.84a.31.31,0,1,0-.31-.31A.31.31,0,0,0,218.76,61.84Z"/><circle class="a" cx="227.42" cy="61.53" r="0.55"/><path class="a" d="M236.07,62.18a.65.65,0,0,0,.65-.65.64.64,0,0,0-.65-.64.65.65,0,0,0-.64.64A.66.66,0,0,0,236.07,62.18Z"/><path class="a" d="M244.74,62.3a.77.77,0,1,0,0-1.54.77.77,0,0,0,0,1.54Z"/><path class="a" d="M253.4,63.65a2.12,2.12,0,1,0-2.11-2.12A2.12,2.12,0,0,0,253.4,63.65Z"/><ellipse class="a" cx="262.06" cy="61.53" rx="0.43" ry="0.44"/><path class="a" d="M270.71,62a.46.46,0,0,0,0-.93.46.46,0,0,0,0,.93Z"/><path class="a" d="M279.38,62.08a.55.55,0,1,0,0-1.1.55.55,0,0,0,0,1.1Z"/><path class="a" d="M288,62.59A1.06,1.06,0,1,0,287,61.53,1.07,1.07,0,0,0,288,62.59Z"/><path class="a" d="M296.7,61.92a.39.39,0,0,0,.38-.39.38.38,0,0,0-.37-.38.38.38,0,0,0-.4.38A.39.39,0,0,0,296.7,61.92Z"/><path class="a" d="M305.36,62a.43.43,0,0,0,.43-.44.42.42,0,0,0-.43-.43.44.44,0,0,0-.44.43A.44.44,0,0,0,305.36,62Z"/><path class="a" d="M314,61.92a.38.38,0,0,0,.38-.39.37.37,0,0,0-.38-.38.38.38,0,0,0-.39.38A.39.39,0,0,0,314,61.92Z"/><path class="a" d="M322.68,61.84a.31.31,0,0,0,0-.62.31.31,0,1,0,0,.62Z"/><path class="a" d="M331.33,61.82a.29.29,0,0,0,0-.57.29.29,0,1,0,0,.57Z"/><path class="a" d="M340,62a.44.44,0,0,0,.44-.44.43.43,0,0,0-.44-.43.42.42,0,0,0-.42.43A.43.43,0,0,0,340,62Z"/><path class="a" d="M348.66,62.26a.73.73,0,0,0,0-1.46.73.73,0,1,0,0,1.46Z"/><circle class="a" cx="357.31" cy="61.53" r="0.99"/><path class="a" d="M123.51,70.46a.27.27,0,0,0,0-.53.27.27,0,0,0,0,.53Z"/><path class="a" d="M132.17,70.67a.48.48,0,1,0,0-1,.48.48,0,0,0,0,1Z"/><path class="a" d="M140.83,70.38a.19.19,0,0,0,0-.37.19.19,0,1,0,0,.38Z"/><path class="a" d="M149.49,70.36a.17.17,0,1,0,0-.33.17.17,0,1,0,0,.33Z"/><path class="a" d="M158.16,70.36a.17.17,0,0,0,0-.33.17.17,0,1,0,0,.33Z"/><path class="a" d="M166.81,70.34a.14.14,0,0,0,0-.29.14.14,0,0,0,0,.29Z"/><ellipse class="a" cx="175.46" cy="70.19" rx="0.21" ry="0.21"/><path class="a" d="M184.12,70.38a.19.19,0,1,0,0-.37.19.19,0,0,0,0,.38Z"/><path class="a" d="M192.79,70.41a.21.21,0,0,0,.21-.21.22.22,0,0,0-.21-.22.21.21,0,0,0-.22.22A.21.21,0,0,0,192.79,70.41Z"/><path class="a" d="M201.44,70.41a.21.21,0,0,0,.22-.21.22.22,0,1,0-.43,0A.21.21,0,0,0,201.44,70.41Z"/><path class="a" d="M210.09,70.41a.22.22,0,0,0,.23-.21.23.23,0,0,0-.23-.22.21.21,0,0,0-.2.22A.2.2,0,0,0,210.09,70.41Z"/><path class="a" d="M218.76,70.41a.21.21,0,0,0,.22-.21.22.22,0,0,0-.22-.22.21.21,0,0,0-.21.22A.2.2,0,0,0,218.76,70.41Z"/><path class="a" d="M227.42,70.67a.48.48,0,1,0-.49-.47A.48.48,0,0,0,227.42,70.67Z"/><path class="a" d="M236.07,70.89a.7.7,0,1,0-.68-.69A.69.69,0,0,0,236.07,70.89Z"/><path class="a" d="M244.74,70.67a.48.48,0,0,0,0-1,.48.48,0,0,0,0,1Z"/><path class="a" d="M253.4,70.5a.31.31,0,0,0,.31-.31.31.31,0,1,0-.62,0A.31.31,0,0,0,253.4,70.5Z"/><path class="a" d="M262.06,70.65a.45.45,0,1,0-.45-.45A.45.45,0,0,0,262.06,70.65Z"/><path class="a" d="M270.71,70.75a.55.55,0,0,0,.55-.55.55.55,0,0,0-.55-.55.55.55,0,0,0-.55.55A.56.56,0,0,0,270.71,70.75Z"/><path class="a" d="M279.38,70.58a.39.39,0,1,0-.38-.39A.37.37,0,0,0,279.38,70.58Z"/><circle class="a" cx="288.04" cy="70.2" r="0.45"/><path class="a" d="M296.7,70.63a.45.45,0,0,0,.43-.43.44.44,0,0,0-.43-.43.43.43,0,0,0-.44.43A.44.44,0,0,0,296.7,70.63Z"/><ellipse class="a" cx="305.36" cy="70.2" rx="0.35" ry="0.36"/><path class="a" d="M314,70.5a.31.31,0,0,0,.31-.31.31.31,0,1,0-.31.31Z"/><path class="a" d="M322.68,70.46a.27.27,0,0,0,0-.53.27.27,0,1,0,0,.53Z"/><path class="a" d="M331.33,70.43a.24.24,0,0,0,.24-.23.24.24,0,1,0-.49,0A.24.24,0,0,0,331.33,70.43Z"/><path class="a" d="M340,70.43a.23.23,0,0,0,.24-.23.24.24,0,1,0-.47,0A.23.23,0,0,0,340,70.43Z"/><path class="a" d="M348.66,70.58a.39.39,0,0,0,0-.77.39.39,0,1,0,0,.77Z"/><path class="a" d="M357.31,70.75a.56.56,0,0,0,.55-.55.55.55,0,1,0-.55.55Z"/><circle class="a" cx="322.61" cy="0.92" r="0.67"/><path class="a" d="M331.26,1.59a.68.68,0,0,0,.68-.67.68.68,0,0,0-1.36,0A.68.68,0,0,0,331.26,1.59Z"/><path class="a" d="M339.93,1.66a.75.75,0,1,0,0-1.5.76.76,0,0,0-.75.75A.76.76,0,0,0,339.93,1.66Z"/><path class="a" d="M348.59,1.18a.25.25,0,0,0,.25-.26.26.26,0,0,0-.25-.27.27.27,0,0,0-.28.27A.27.27,0,0,0,348.59,1.18Z"/><path class="a" d="M357.25,1.13a.22.22,0,0,0,.22-.21.23.23,0,0,0-.22-.22.21.21,0,0,0-.22.22A.21.21,0,0,0,357.25,1.13Z"/><path class="a" d="M365.9,1.13a.21.21,0,0,0,.22-.21A.21.21,0,0,0,365.9.7a.22.22,0,0,0-.22.22A.22.22,0,0,0,365.9,1.13Z"/><path class="a" d="M374.57,1.13a.21.21,0,0,0,.21-.21.21.21,0,0,0-.21-.22.22.22,0,0,0-.22.22A.22.22,0,0,0,374.57,1.13Z"/><path class="a" d="M383.23,1.13a.21.21,0,0,0,.2-.21.21.21,0,0,0-.2-.22.22.22,0,0,0-.22.22A.22.22,0,0,0,383.23,1.13Z"/><circle class="a" cx="391.88" cy="0.92" r="0.24"/><path class="a" d="M400.56,1.16a.23.23,0,0,0,.22-.24.23.23,0,0,0-.22-.24.24.24,0,0,0-.25.24A.24.24,0,0,0,400.56,1.16Z"/><path class="a" d="M409.21,1.13a.22.22,0,0,0,.21-.21.22.22,0,1,0-.43,0A.22.22,0,0,0,409.21,1.13Z"/><circle class="a" cx="417.86" cy="0.92" r="0.53"/><path class="a" d="M426.51,1.4a.48.48,0,1,0,0-1,.5.5,0,0,0-.49.49A.5.5,0,0,0,426.51,1.4Z"/><path class="a" d="M435.19,1.44a.53.53,0,1,0-.53-.52A.52.52,0,0,0,435.19,1.44Z"/><path class="a" d="M443.84,1.21a.29.29,0,0,0,0-.58.29.29,0,0,0,0,.58Z"/><path class="a" d="M452.49,1.13a.23.23,0,0,0,.23-.21.23.23,0,0,0-.23-.22.21.21,0,0,0-.2.22A.21.21,0,0,0,452.49,1.13Z"/><path class="a" d="M461.15,1.25a.34.34,0,0,0,.34-.33.34.34,0,0,0-.67,0A.33.33,0,0,0,461.15,1.25Z"/><path class="a" d="M469.82,1.3a.37.37,0,0,0,.38-.38.37.37,0,0,0-.37-.39.39.39,0,1,0,0,.77Z"/><path class="a" d="M478.47,1.23a.32.32,0,0,0,.33-.31.33.33,0,0,0-.33-.31.31.31,0,0,0-.31.31A.31.31,0,0,0,478.47,1.23Z"/><path class="a" d="M487.13,1.16a.24.24,0,0,0,.25-.24.25.25,0,0,0-.25-.24.24.24,0,0,0-.23.24A.24.24,0,0,0,487.13,1.16Z"/><circle class="a" cx="495.79" cy="0.92" r="0.22"/><path class="a" d="M504.46,1.13a.21.21,0,0,0,.21-.21.21.21,0,0,0-.21-.22.23.23,0,0,0-.23.22A.23.23,0,0,0,504.46,1.13Z"/><path class="a" d="M513.11,1.11a.21.21,0,0,0,.21-.19.21.21,0,0,0-.21-.2.2.2,0,0,0,0,.39Z"/><path class="a" d="M521.77,1a.1.1,0,0,0,.1-.1.1.1,0,0,0-.1-.1.1.1,0,0,0-.1.1A.11.11,0,0,0,521.77,1Z"/><circle class="a" cx="530.44" cy="0.92" r="0.1"/><path class="a" d="M539.1,1.06a.14.14,0,0,0,.13-.14.14.14,0,0,0-.13-.14.14.14,0,1,0,0,.29Z"/><path class="a" d="M547.75,1.08a.18.18,0,0,0,.18-.16.17.17,0,0,0-.18-.17.16.16,0,0,0-.16.17A.16.16,0,0,0,547.75,1.08Z"/><path class="a" d="M556.41,1.08a.17.17,0,0,0,.16-.16.17.17,0,0,0-.16-.17.17.17,0,1,0,0,.33Z"/><path class="a" d="M565.08,1.13a.21.21,0,0,0,.2-.21.21.21,0,0,0-.2-.22.22.22,0,0,0-.22.22A.22.22,0,0,0,565.08,1.13Z"/><path class="a" d="M573.73,1.66a.75.75,0,0,0,.75-.74.76.76,0,0,0-.75-.75.74.74,0,0,0-.74.75A.74.74,0,0,0,573.73,1.66Z"/><path class="a" d="M582.38,1.25a.33.33,0,0,0,.34-.33.33.33,0,0,0-.34-.34.34.34,0,0,0-.33.34A.33.33,0,0,0,582.38,1.25Z"/><circle class="a" cx="322.61" cy="9.58" r="0.79"/><path class="a" d="M331.26,10.37a.79.79,0,1,0,0-1.58.79.79,0,0,0,0,1.58Z"/><circle class="a" cx="339.92" cy="9.58" r="0.77"/><circle class="a" cx="348.59" cy="9.58" r="0.43"/><path class="a" d="M357.25,9.8a.23.23,0,0,0,.22-.22.22.22,0,0,0-.22-.21.21.21,0,0,0-.22.21A.21.21,0,0,0,357.25,9.8Z"/><path class="a" d="M365.9,9.8a.21.21,0,0,0,.22-.22.21.21,0,0,0-.22-.21.22.22,0,0,0-.22.21A.22.22,0,0,0,365.9,9.8Z"/><path class="a" d="M374.57,9.82a.23.23,0,0,0,.23-.24.23.23,0,0,0-.23-.24.23.23,0,0,0-.24.24A.24.24,0,0,0,374.57,9.82Z"/><path class="a" d="M383.23,9.84a.26.26,0,0,0,.25-.26.27.27,0,0,0-.25-.26.27.27,0,0,0-.28.26A.27.27,0,0,0,383.23,9.84Z"/><path class="a" d="M391.88,9.86a.28.28,0,0,0,.29-.29.29.29,0,0,0-.29-.29.29.29,0,0,0-.29.29A.29.29,0,0,0,391.88,9.86Z"/><path class="a" d="M400.56,10a.39.39,0,1,0-.4-.39A.39.39,0,0,0,400.56,10Z"/><path class="a" d="M409.21,10a.43.43,0,1,0-.44-.43A.43.43,0,0,0,409.21,10Z"/><circle class="a" cx="417.86" cy="9.58" r="0.53"/><path class="a" d="M426.51,10a.43.43,0,1,0,0-.86.43.43,0,0,0,0,.86Z"/><path class="a" d="M435.19,10.18a.6.6,0,0,0,0-1.2.6.6,0,0,0,0,1.2Z"/><path class="a" d="M443.84,10a.46.46,0,0,0,.46-.45.47.47,0,0,0-.46-.46.46.46,0,0,0-.46.46A.46.46,0,0,0,443.84,10Z"/><path class="a" d="M452.49,9.89a.32.32,0,0,0,.32-.32.31.31,0,0,0-.32-.31.31.31,0,0,0-.3.31A.32.32,0,0,0,452.49,9.89Z"/><path class="a" d="M461.15,10.22a.65.65,0,1,0,0-1.3.65.65,0,1,0,0,1.3Z"/><ellipse class="a" cx="469.82" cy="9.58" rx="0.67" ry="0.67"/><path class="a" d="M478.47,10.11a.52.52,0,0,0,.53-.53.52.52,0,0,0-1,0A.53.53,0,0,0,478.47,10.11Z"/><path class="a" d="M487.13,9.8a.23.23,0,0,0,.23-.22.23.23,0,0,0-.23-.21.21.21,0,0,0-.21.21A.21.21,0,0,0,487.13,9.8Z"/><circle class="a" cx="495.79" cy="9.58" r="0.22"/><path class="a" d="M504.46,9.8a.21.21,0,0,0,.21-.22.21.21,0,0,0-.21-.21.23.23,0,0,0-.23.21A.23.23,0,0,0,504.46,9.8Z"/><path class="a" d="M513.11,9.8a.23.23,0,0,0,.23-.22.23.23,0,0,0-.23-.21.21.21,0,0,0-.21.21A.21.21,0,0,0,513.11,9.8Z"/><path class="a" d="M521.77,9.8a.21.21,0,0,0,.22-.22.21.21,0,0,0-.22-.21.22.22,0,0,0-.22.21A.22.22,0,0,0,521.77,9.8Z"/><path class="a" d="M530.44,9.72a.15.15,0,0,0,.14-.14.14.14,0,0,0-.14-.14.15.15,0,0,0-.16.14A.16.16,0,0,0,530.44,9.72Z"/><path class="a" d="M539.1,9.72a.14.14,0,0,0,.13-.14.13.13,0,0,0-.13-.14.14.14,0,0,0-.15.14A.15.15,0,0,0,539.1,9.72Z"/><path class="a" d="M547.75,9.74a.17.17,0,1,0,0-.33.17.17,0,0,0,0,.33Z"/><path class="a" d="M556.41,9.74a.17.17,0,0,0,0-.33.17.17,0,1,0,0,.33Z"/><path class="a" d="M565.08,9.76a.18.18,0,0,0,.18-.19.19.19,0,0,0-.18-.19.2.2,0,0,0-.2.19A.19.19,0,0,0,565.08,9.76Z"/><circle class="a" cx="573.73" cy="9.58" r="0.49"/><path class="a" d="M582.38,9.86a.29.29,0,0,0,.3-.29.29.29,0,0,0-.58,0A.29.29,0,0,0,582.38,9.86Z"/><ellipse class="a" cx="322.61" cy="18.23" rx="1.29" ry="1.3"/><path class="a" d="M331.26,19.53a1.3,1.3,0,1,0,0-2.59,1.3,1.3,0,0,0,0,2.59Z"/><path class="a" d="M339.93,19.29a1.06,1.06,0,1,0-1-1.06A1.06,1.06,0,0,0,339.93,19.29Z"/><path class="a" d="M348.59,19.27a1,1,0,1,0-1-1A1,1,0,0,0,348.59,19.27Z"/><path class="a" d="M357.25,19a.74.74,0,1,0,0-1.48.74.74,0,1,0,0,1.48Z"/><path class="a" d="M365.9,18.65a.41.41,0,0,0,0-.82.41.41,0,0,0,0,.82Z"/><path class="a" d="M374.57,18.52a.29.29,0,0,0,0-.57.29.29,0,1,0,0,.57Z"/><path class="a" d="M383.23,18.58a.34.34,0,0,0,0-.68.34.34,0,1,0,0,.68Z"/><path class="a" d="M391.88,18.62a.39.39,0,0,0,.38-.39.38.38,0,0,0-.38-.38.37.37,0,0,0-.38.38A.37.37,0,0,0,391.88,18.62Z"/><path class="a" d="M400.56,18.69a.45.45,0,0,0,.44-.46.45.45,0,0,0-.9,0A.45.45,0,0,0,400.56,18.69Z"/><path class="a" d="M409.21,18.6a.36.36,0,0,0,.35-.36.35.35,0,0,0-.35-.36.37.37,0,0,0-.37.36A.38.38,0,0,0,409.21,18.6Z"/><path class="a" d="M417.86,19a.77.77,0,1,0,0-1.54.77.77,0,0,0,0,1.54Z"/><path class="a" d="M426.51,18.76a.53.53,0,0,0,0-1.06.53.53,0,1,0,0,1.06Z"/><path class="a" d="M435.19,18.69a.45.45,0,0,0,.44-.46.44.44,0,0,0-.44-.45.45.45,0,0,0-.46.45A.45.45,0,0,0,435.19,18.69Z"/><path class="a" d="M443.84,18.67a.43.43,0,1,0-.43-.44A.44.44,0,0,0,443.84,18.67Z"/><path class="a" d="M452.49,21.45a3.22,3.22,0,1,0-3.21-3.22A3.21,3.21,0,0,0,452.49,21.45Z"/><path class="a" d="M461.15,19a.72.72,0,1,0-.72-.72A.73.73,0,0,0,461.15,19Z"/><path class="a" d="M469.82,18.86a.63.63,0,0,0,0-1.25.63.63,0,0,0,0,1.25Z"/><path class="a" d="M478.47,18.76a.53.53,0,1,0,0-1.06.53.53,0,0,0,0,1.06Z"/><path class="a" d="M487.13,18.5a.26.26,0,1,0,0-.53.26.26,0,0,0,0,.53Z"/><ellipse class="a" cx="495.79" cy="18.23" rx="0.22" ry="0.21"/><path class="a" d="M504.46,18.45a.21.21,0,0,0,0-.43.21.21,0,1,0,0,.43Z"/><path class="a" d="M513.11,18.45a.21.21,0,1,0,0-.43.21.21,0,0,0,0,.43Z"/><path class="a" d="M521.77,18.45a.21.21,0,1,0,0-.43.21.21,0,1,0,0,.43Z"/><path class="a" d="M530.44,18.45a.21.21,0,0,0,0-.43.21.21,0,1,0,0,.43Z"/><path class="a" d="M539.1,18.55a.31.31,0,0,0,.31-.32.31.31,0,0,0-.31-.31.33.33,0,0,0-.33.31A.33.33,0,0,0,539.1,18.55Z"/><path class="a" d="M547.75,18.55a.31.31,0,0,0,.31-.32.31.31,0,0,0-.31-.31.31.31,0,0,0-.31.31A.32.32,0,0,0,547.75,18.55Z"/><path class="a" d="M556.41,18.43a.19.19,0,0,0,.19-.19.18.18,0,0,0-.19-.19.2.2,0,0,0-.2.19A.2.2,0,0,0,556.41,18.43Z"/><path class="a" d="M565.08,18.69a.46.46,0,0,0,.45-.46.45.45,0,0,0-.45-.45.45.45,0,0,0-.46.45A.45.45,0,0,0,565.08,18.69Z"/><path class="a" d="M573.73,18.69a.46.46,0,0,0,.46-.46.45.45,0,0,0-.46-.45.46.46,0,0,0-.46.45A.47.47,0,0,0,573.73,18.69Z"/><path class="a" d="M582.38,18.48a.23.23,0,0,0,.24-.24.24.24,0,1,0-.47,0A.23.23,0,0,0,582.38,18.48Z"/><ellipse class="a" cx="322.61" cy="26.9" rx="1.42" ry="1.42"/><path class="a" d="M331.26,28.31a1.42,1.42,0,1,0-1.4-1.41A1.42,1.42,0,0,0,331.26,28.31Z"/><circle class="a" cx="339.92" cy="26.9" r="2.49"/><circle class="a" cx="348.59" cy="26.9" r="1.78"/><path class="a" d="M357.25,28.17A1.27,1.27,0,1,0,356,26.9,1.28,1.28,0,0,0,357.25,28.17Z"/><path class="a" d="M365.9,28a1.06,1.06,0,1,0,0-2.11,1.06,1.06,0,1,0,0,2.11Z"/><path class="a" d="M374.57,27.38a.48.48,0,1,0,0-1,.48.48,0,0,0,0,1Z"/><path class="a" d="M383.23,27.33a.43.43,0,0,0,.43-.43.44.44,0,1,0-.43.43Z"/><path class="a" d="M391.88,27.33a.42.42,0,0,0,.43-.43.43.43,0,0,0-.43-.44.44.44,0,0,0-.44.44A.43.43,0,0,0,391.88,27.33Z"/><path class="a" d="M400.56,27.33a.43.43,0,0,0,.42-.43.43.43,0,1,0-.86,0A.43.43,0,0,0,400.56,27.33Z"/><path class="a" d="M409.21,27.83a.94.94,0,1,0-.95-.93A.94.94,0,0,0,409.21,27.83Z"/><path class="a" d="M417.86,27.56a.66.66,0,0,0,.66-.67.66.66,0,1,0-1.32,0A.66.66,0,0,0,417.86,27.56Z"/><path class="a" d="M426.51,27.69a.8.8,0,1,0-.78-.79A.8.8,0,0,0,426.51,27.69Z"/><path class="a" d="M435.19,28.46a1.56,1.56,0,1,0-1.57-1.56A1.57,1.57,0,0,0,435.19,28.46Z"/><ellipse class="a" cx="443.84" cy="26.89" rx="2.23" ry="2.23"/><path class="a" d="M452.49,28.09a1.2,1.2,0,1,0-1.19-1.2A1.19,1.19,0,0,0,452.49,28.09Z"/><path class="a" d="M461.15,28a1.08,1.08,0,1,0-1.08-1.08A1.09,1.09,0,0,0,461.15,28Z"/><path class="a" d="M469.82,27.09a.19.19,0,1,0,0-.39.19.19,0,1,0,0,.39Z"/><path class="a" d="M478.47,28a1.06,1.06,0,1,0-1-1.05A1.05,1.05,0,0,0,478.47,28Z"/><path class="a" d="M487.13,27.91a1,1,0,1,0-1-1A1,1,0,0,0,487.13,27.91Z"/><circle class="a" cx="495.79" cy="26.89" r="0.65"/><path class="a" d="M504.46,27.18a.29.29,0,0,0,0-.57.29.29,0,1,0,0,.57Z"/><path class="a" d="M513.11,27.14a.26.26,0,0,0,.25-.24.25.25,0,0,0-.25-.24.24.24,0,0,0-.23.24A.25.25,0,0,0,513.11,27.14Z"/><path class="a" d="M521.77,27.14a.25.25,0,0,0,.24-.24.24.24,0,0,0-.49,0A.25.25,0,0,0,521.77,27.14Z"/><path class="a" d="M530.44,27.14a.25.25,0,0,0,.23-.24.24.24,0,0,0-.23-.24.24.24,0,0,0-.25.24A.25.25,0,0,0,530.44,27.14Z"/><path class="a" d="M539.1,27.26a.36.36,0,0,0,0-.72.36.36,0,1,0,0,.72Z"/><path class="a" d="M547.75,27.3a.41.41,0,0,0,0-.82.41.41,0,0,0,0,.82Z"/><ellipse class="a" cx="556.41" cy="26.9" rx="0.45" ry="0.46"/><path class="a" d="M565.08,27.74a.84.84,0,1,0-.85-.84A.83.83,0,0,0,565.08,27.74Z"/><path class="a" d="M573.73,27.76a.86.86,0,1,0-.86-.86A.85.85,0,0,0,573.73,27.76Z"/><path class="a" d="M582.38,27.81a.91.91,0,1,0,0-1.83.91.91,0,0,0,0,1.83Z"/><circle class="a" cx="591.06" cy="26.9" r="1.68"/><circle class="a" cx="599.71" cy="26.9" r="0.53"/><path class="a" d="M400.56,37.64a2.09,2.09,0,1,0-2.1-2.09A2.08,2.08,0,0,0,400.56,37.64Z"/><ellipse class="a" cx="409.21" cy="35.55" rx="3.31" ry="3.32"/><ellipse class="a" cx="417.86" cy="35.56" rx="2.83" ry="2.83"/><path class="a" d="M426.51,37.5a1.95,1.95,0,1,0-1.93-1.95A2,2,0,0,0,426.51,37.5Z"/><path class="a" d="M435.19,36.8a1.25,1.25,0,1,0-1.26-1.25A1.24,1.24,0,0,0,435.19,36.8Z"/><path class="a" d="M443.84,36.66a1.11,1.11,0,1,0-1.1-1.11A1.1,1.1,0,0,0,443.84,36.66Z"/><path class="a" d="M452.49,36.25a.69.69,0,1,0-.69-.7A.7.7,0,0,0,452.49,36.25Z"/><path class="a" d="M461.15,37.35a1.8,1.8,0,1,0-1.8-1.8A1.8,1.8,0,0,0,461.15,37.35Z"/><ellipse class="a" cx="469.82" cy="35.55" rx="0.99" ry="0.98"/><path class="a" d="M478.47,35.94a.39.39,0,1,0,0-.77.39.39,0,0,0,0,.77Z"/><path class="a" d="M487.13,36.18a.63.63,0,1,0-.63-.63A.64.64,0,0,0,487.13,36.18Z"/><circle class="a" cx="495.8" cy="35.56" r="0.45"/><circle class="a" cx="504.46" cy="35.55" r="0.53"/><path class="a" d="M513.11,36a.46.46,0,1,0-.45-.46A.46.46,0,0,0,513.11,36Z"/><ellipse class="a" cx="521.77" cy="35.55" rx="0.33" ry="0.34"/><circle class="a" cx="530.44" cy="35.55" r="0.41"/><path class="a" d="M539.1,36.3a.74.74,0,1,0-.75-.75A.74.74,0,0,0,539.1,36.3Z"/><path class="a" d="M547.75,37.26a1.71,1.71,0,1,0-1.7-1.7A1.7,1.7,0,0,0,547.75,37.26Z"/><circle class="a" cx="556.42" cy="35.55" r="1.58"/><path class="a" d="M565.08,37.22a1.66,1.66,0,1,0-1.66-1.66A1.67,1.67,0,0,0,565.08,37.22Z"/><path class="a" d="M573.73,37.35a1.8,1.8,0,1,0-1.8-1.8A1.8,1.8,0,0,0,573.73,37.35Z"/><path class="a" d="M582.38,36.76a1.2,1.2,0,1,0,0-2.41,1.2,1.2,0,0,0,0,2.41Z"/><path class="a" d="M591.06,39.69a4.13,4.13,0,1,0-4.14-4.13A4.12,4.12,0,0,0,591.06,39.69Z"/><path class="a" d="M599.71,35.87a.31.31,0,1,0,0-.63.31.31,0,0,0,0,.63Z"/><path class="a" d="M348.59,44.5a.29.29,0,0,0,0-.58.29.29,0,1,0,0,.58Z"/><path class="a" d="M400.56,46.07a1.85,1.85,0,1,0-1.87-1.85A1.85,1.85,0,0,0,400.56,46.07Z"/><path class="a" d="M409.21,45.44A1.23,1.23,0,1,0,408,44.21,1.23,1.23,0,0,0,409.21,45.44Z"/><circle class="a" cx="417.86" cy="44.21" r="0.55"/><path class="a" d="M426.51,44.57a.37.37,0,0,0,.38-.36.37.37,0,0,0-.37-.36.35.35,0,0,0-.35.36A.35.35,0,0,0,426.51,44.57Z"/><path class="a" d="M435.19,44.72a.52.52,0,0,0,.51-.51.51.51,0,0,0-.51-.5.5.5,0,0,0-.51.5A.51.51,0,0,0,435.19,44.72Z"/><circle class="a" cx="443.84" cy="44.21" r="0.17"/><path class="a" d="M452.49,45.12a.91.91,0,1,0-.91-.91A.91.91,0,0,0,452.49,45.12Z"/><path class="a" d="M461.15,45a.79.79,0,1,0-.78-.8A.78.78,0,0,0,461.15,45Z"/><path class="a" d="M469.82,45.92a1.7,1.7,0,1,0-1.7-1.71A1.7,1.7,0,0,0,469.82,45.92Z"/><path class="a" d="M478.47,45.89a1.68,1.68,0,1,0-1.68-1.68A1.68,1.68,0,0,0,478.47,45.89Z"/><path class="a" d="M487.13,45.71a1.49,1.49,0,1,0-1.48-1.5A1.49,1.49,0,0,0,487.13,45.71Z"/><path class="a" d="M495.8,45.63a1.42,1.42,0,1,0-1.41-1.42A1.42,1.42,0,0,0,495.8,45.63Z"/><circle class="a" cx="504.46" cy="44.21" r="1.47"/><path class="a" d="M513.11,45.8a1.59,1.59,0,1,0-1.58-1.59A1.58,1.58,0,0,0,513.11,45.8Z"/><ellipse class="a" cx="521.77" cy="44.21" rx="1.46" ry="1.47"/><path class="a" d="M530.44,48.05a3.84,3.84,0,1,0-3.84-3.84A3.85,3.85,0,0,0,530.44,48.05Z"/><path class="a" d="M539.1,46.79a2.57,2.57,0,1,0-2.58-2.58A2.57,2.57,0,0,0,539.1,46.79Z"/><circle class="a" cx="547.75" cy="44.21" r="3.99"/><circle class="a" cx="556.41" cy="44.21" r="5.04"/><circle class="a" cx="565.08" cy="44.21" r="1.68"/><path class="a" d="M573.73,45.18a1,1,0,1,0-1-1A1,1,0,0,0,573.73,45.18Z"/><path class="a" d="M582.38,45.39a1.17,1.17,0,1,0-1.17-1.18A1.18,1.18,0,0,0,582.38,45.39Z"/><path class="a" d="M591.06,45.39a1.17,1.17,0,1,0-1.19-1.18A1.17,1.17,0,0,0,591.06,45.39Z"/><path class="a" d="M599.71,46.4a2.18,2.18,0,1,0-2.18-2.19A2.18,2.18,0,0,0,599.71,46.4Z"/><path class="a" d="M322.61,53.5a.63.63,0,0,0,0-1.25.63.63,0,1,0,0,1.25Z"/><path class="a" d="M331.26,53.5a.63.63,0,1,0-.62-.62A.62.62,0,0,0,331.26,53.5Z"/><circle class="a" cx="339.92" cy="52.87" r="1.08"/><path class="a" d="M348.59,53.74a.87.87,0,0,0,0-1.73.87.87,0,1,0,0,1.73Z"/><path class="a" d="M357.25,56.52a3.65,3.65,0,1,0-3.66-3.65A3.65,3.65,0,0,0,357.25,56.52Z"/><path class="a" d="M365.9,54.87a2,2,0,1,0-2-2A2,2,0,0,0,365.9,54.87Z"/><path class="a" d="M374.57,53.83a1,1,0,0,0,0-1.92,1,1,0,0,0,0,1.92Z"/><path class="a" d="M383.23,53.76a.89.89,0,0,0,0-1.78.89.89,0,1,0,0,1.78Z"/><ellipse class="a" cx="391.88" cy="52.87" rx="0.49" ry="0.48"/><path class="a" d="M400.56,53.3a.43.43,0,0,0,.42-.43.43.43,0,1,0-.86,0A.43.43,0,0,0,400.56,53.3Z"/><path class="a" d="M409.21,53.23a.36.36,0,0,0,0-.72.36.36,0,1,0,0,.72Z"/><ellipse class="a" cx="417.86" cy="52.88" rx="0.24" ry="0.24"/><path class="a" d="M426.51,53.11a.24.24,0,1,0-.23-.24A.23.23,0,0,0,426.51,53.11Z"/><path class="a" d="M435.19,53.11a.24.24,0,1,0-.24-.24A.23.23,0,0,0,435.19,53.11Z"/><circle class="a" cx="443.84" cy="52.87" r="0.36"/><path class="a" d="M452.49,53.42a.55.55,0,0,0,0-1.11.55.55,0,0,0,0,1.11Z"/><circle class="a" cx="461.15" cy="52.87" r="1.18"/><path class="a" d="M469.82,54.12a1.25,1.25,0,0,0,0-2.5,1.25,1.25,0,1,0,0,2.5Z"/><path class="a" d="M478.47,54a1.15,1.15,0,1,0-1.15-1.15A1.16,1.16,0,0,0,478.47,54Z"/><path class="a" d="M487.13,54.07a1.2,1.2,0,1,0,0-2.4,1.2,1.2,0,1,0,0,2.4Z"/><path class="a" d="M495.8,54.29a1.42,1.42,0,1,0-1.41-1.42A1.42,1.42,0,0,0,495.8,54.29Z"/><path class="a" d="M504.46,55.49a2.61,2.61,0,1,0-2.62-2.61A2.61,2.61,0,0,0,504.46,55.49Z"/><path class="a" d="M513.11,54.29a1.42,1.42,0,1,0-1.4-1.42A1.42,1.42,0,0,0,513.11,54.29Z"/><path class="a" d="M521.77,53.55a.67.67,0,1,0,0-1.35.67.67,0,0,0,0,1.35Z"/><path class="a" d="M530.44,53.55a.67.67,0,0,0,0-1.35.67.67,0,1,0,0,1.35Z"/><path class="a" d="M539.1,53.71a.84.84,0,1,0-.85-.84A.84.84,0,0,0,539.1,53.71Z"/><path class="a" d="M547.75,53.3a.43.43,0,0,0,.43-.43.43.43,0,0,0-.43-.44.44.44,0,0,0-.44.44A.44.44,0,0,0,547.75,53.3Z"/><path class="a" d="M556.41,53.33a.46.46,0,1,0-.45-.45A.45.45,0,0,0,556.41,53.33Z"/><path class="a" d="M565.08,53.42a.55.55,0,0,0,0-1.11.55.55,0,0,0,0,1.11Z"/><ellipse class="a" cx="573.73" cy="52.87" rx="0.6" ry="0.6"/><path class="a" d="M582.38,54.25A1.37,1.37,0,1,0,581,52.88,1.37,1.37,0,0,0,582.38,54.25Z"/><path class="a" d="M591.06,54.25a1.37,1.37,0,1,0-1.38-1.37A1.37,1.37,0,0,0,591.06,54.25Z"/><ellipse class="a" cx="599.71" cy="52.88" rx="1.92" ry="1.93"/><path class="a" d="M365.9,61.8a.27.27,0,0,0,0-.53.27.27,0,0,0,0,.53Z"/><ellipse class="a" cx="374.57" cy="61.53" rx="0.45" ry="0.46"/><path class="a" d="M383.23,62a.46.46,0,0,0,0-.93.46.46,0,0,0,0,.93Z"/><ellipse class="a" cx="391.88" cy="61.53" rx="0.19" ry="0.2"/><path class="a" d="M400.56,61.84a.31.31,0,0,0,0-.62.31.31,0,1,0,0,.62Z"/><path class="a" d="M409.21,61.84a.31.31,0,1,0-.32-.31A.31.31,0,0,0,409.21,61.84Z"/><path class="a" d="M417.86,61.75a.22.22,0,0,0,0-.44.22.22,0,0,0,0,.44Z"/><path class="a" d="M426.51,61.75a.22.22,0,0,0,0-.44.22.22,0,0,0,0,.44Z"/><path class="a" d="M435.19,61.75a.22.22,0,0,0,0-.44.22.22,0,0,0,0,.44Z"/><path class="a" d="M443.84,61.75a.22.22,0,1,0,0-.44.22.22,0,0,0,0,.44Z"/><path class="a" d="M452.49,61.75a.22.22,0,1,0,0-.44.22.22,0,0,0,0,.44Z"/><path class="a" d="M461.15,61.84a.31.31,0,1,0-.31-.31A.31.31,0,0,0,461.15,61.84Z"/><circle class="a" cx="469.82" cy="61.53" r="0.55"/><path class="a" d="M478.47,62.18a.65.65,0,0,0,.65-.65.64.64,0,0,0-.65-.64.65.65,0,0,0-.64.64A.66.66,0,0,0,478.47,62.18Z"/><path class="a" d="M487.13,62.3a.77.77,0,1,0,0-1.54.77.77,0,0,0,0,1.54Z"/><ellipse class="a" cx="495.8" cy="61.53" rx="2.11" ry="2.12"/><ellipse class="a" cx="504.46" cy="61.53" rx="0.43" ry="0.44"/><path class="a" d="M513.11,62a.46.46,0,0,0,0-.93.46.46,0,0,0,0,.93Z"/><path class="a" d="M521.77,62.08a.55.55,0,1,0,0-1.1.55.55,0,0,0,0,1.1Z"/><path class="a" d="M530.44,62.59a1.06,1.06,0,1,0-1.06-1.06A1.07,1.07,0,0,0,530.44,62.59Z"/><path class="a" d="M539.1,61.92a.39.39,0,0,0,.38-.39.38.38,0,0,0-.38-.38.38.38,0,0,0-.4.38A.39.39,0,0,0,539.1,61.92Z"/><path class="a" d="M547.75,62a.43.43,0,0,0,.43-.44.42.42,0,0,0-.43-.43.44.44,0,0,0-.44.43A.44.44,0,0,0,547.75,62Z"/><path class="a" d="M556.41,61.92a.38.38,0,0,0,.38-.39.37.37,0,0,0-.38-.38.38.38,0,0,0-.39.38A.39.39,0,0,0,556.41,61.92Z"/><path class="a" d="M565.08,61.84a.31.31,0,0,0,0-.62.31.31,0,1,0,0,.62Z"/><path class="a" d="M573.73,61.82a.29.29,0,1,0,0-.57.29.29,0,0,0,0,.57Z"/><path class="a" d="M582.38,62a.44.44,0,0,0,.44-.44.43.43,0,0,0-.44-.43.42.42,0,0,0-.42.43A.43.43,0,0,0,582.38,62Z"/><path class="a" d="M591.06,62.26a.73.73,0,0,0,0-1.46.73.73,0,1,0,0,1.46Z"/><path class="a" d="M599.71,62.53a1,1,0,1,0-1-1A1,1,0,0,0,599.71,62.53Z"/><path class="a" d="M365.9,70.46a.27.27,0,0,0,0-.53.27.27,0,0,0,0,.53Z"/><path class="a" d="M374.57,70.67a.48.48,0,1,0,0-1,.48.48,0,0,0,0,1Z"/><path class="a" d="M383.23,70.38a.19.19,0,0,0,0-.37.19.19,0,1,0,0,.38Z"/><path class="a" d="M391.88,70.36a.17.17,0,1,0,0-.33.17.17,0,1,0,0,.33Z"/><path class="a" d="M400.56,70.36a.17.17,0,0,0,0-.33.17.17,0,1,0,0,.33Z"/><path class="a" d="M409.21,70.34a.14.14,0,0,0,0-.29.14.14,0,1,0,0,.29Z"/><ellipse class="a" cx="417.86" cy="70.19" rx="0.21" ry="0.21"/><path class="a" d="M426.51,70.38a.19.19,0,1,0,0-.37.19.19,0,0,0,0,.38Z"/><path class="a" d="M435.19,70.41a.21.21,0,0,0,.21-.21.22.22,0,0,0-.21-.22.21.21,0,0,0-.22.22A.21.21,0,0,0,435.19,70.41Z"/><path class="a" d="M443.84,70.41a.21.21,0,0,0,.22-.21.22.22,0,0,0-.22-.22.22.22,0,0,0-.21.22A.21.21,0,0,0,443.84,70.41Z"/><path class="a" d="M452.49,70.41a.22.22,0,0,0,.23-.21.23.23,0,0,0-.23-.22.21.21,0,0,0-.2.22A.2.2,0,0,0,452.49,70.41Z"/><path class="a" d="M461.15,70.41a.21.21,0,0,0,.22-.21.22.22,0,0,0-.22-.22.21.21,0,0,0-.21.22A.2.2,0,0,0,461.15,70.41Z"/><path class="a" d="M469.82,70.67a.48.48,0,1,0-.49-.47A.48.48,0,0,0,469.82,70.67Z"/><path class="a" d="M478.47,70.89a.7.7,0,1,0-.68-.69A.69.69,0,0,0,478.47,70.89Z"/><path class="a" d="M487.13,70.67a.48.48,0,0,0,0-1,.48.48,0,0,0,0,1Z"/><path class="a" d="M495.8,70.5a.31.31,0,0,0,.31-.31.31.31,0,1,0-.62,0A.31.31,0,0,0,495.8,70.5Z"/><path class="a" d="M504.46,70.65a.45.45,0,1,0-.45-.45A.45.45,0,0,0,504.46,70.65Z"/><path class="a" d="M513.11,70.75a.55.55,0,0,0,.55-.55.55.55,0,0,0-.55-.55.56.56,0,0,0-.55.55A.56.56,0,0,0,513.11,70.75Z"/><path class="a" d="M521.77,70.58a.39.39,0,1,0-.38-.39A.37.37,0,0,0,521.77,70.58Z"/><circle class="a" cx="530.44" cy="70.2" r="0.45"/><path class="a" d="M539.1,70.63a.45.45,0,0,0,.43-.43.44.44,0,0,0-.87,0A.44.44,0,0,0,539.1,70.63Z"/><ellipse class="a" cx="547.75" cy="70.2" rx="0.35" ry="0.36"/><path class="a" d="M556.41,70.5a.32.32,0,0,0,.31-.31.32.32,0,1,0-.31.31Z"/><path class="a" d="M565.08,70.46a.27.27,0,0,0,0-.53.27.27,0,1,0,0,.53Z"/><path class="a" d="M573.73,70.43a.24.24,0,0,0,.24-.23.24.24,0,1,0-.48,0A.24.24,0,0,0,573.73,70.43Z"/><path class="a" d="M582.38,70.43a.23.23,0,0,0,.24-.23.24.24,0,1,0-.47,0A.23.23,0,0,0,582.38,70.43Z"/><path class="a" d="M591.06,70.58a.39.39,0,0,0,0-.77.39.39,0,1,0,0,.77Z"/><path class="a" d="M599.71,70.75a.55.55,0,0,0,.55-.55.55.55,0,1,0-1.1,0A.55.55,0,0,0,599.71,70.75Z"/><path class="a" d="M19.62,78.31a.29.29,0,1,0,0,.57.29.29,0,0,0,0-.57Z"/><path class="a" d="M80.23,69.84a.1.1,0,0,0-.1.1.1.1,0,0,0,.1.1.1.1,0,0,0,.1-.1A.11.11,0,0,0,80.23,69.84Z"/><circle class="a" cx="71.56" cy="69.94" r="0.1"/><path class="a" d="M62.9,69.8a.14.14,0,0,0,0,.29.14.14,0,1,0,0-.29Z"/><path class="a" d="M54.25,69.78a.17.17,0,1,0,0,.33.17.17,0,0,0,0-.33Z"/><path class="a" d="M45.59,69.78a.17.17,0,1,0,0,.33.17.17,0,1,0,0-.33Z"/><path class="a" d="M36.92,69.73a.21.21,0,0,0-.2.21.21.21,0,0,0,.2.22.22.22,0,0,0,.22-.22A.22.22,0,0,0,36.92,69.73Z"/><path class="a" d="M28.27,69.2a.75.75,0,1,0,0,1.5.75.75,0,0,0,0-1.5Z"/><path class="a" d="M19.62,69.61a.33.33,0,0,0-.34.33.33.33,0,0,0,.34.34.34.34,0,0,0,.33-.34A.33.33,0,0,0,19.62,69.61Z"/><path class="a" d="M80.23,61.06a.21.21,0,0,0-.22.22.21.21,0,0,0,.22.21.22.22,0,0,0,.22-.21A.22.22,0,0,0,80.23,61.06Z"/><path class="a" d="M71.56,61.14a.15.15,0,0,0-.14.14.14.14,0,0,0,.14.14.15.15,0,0,0,.16-.14A.16.16,0,0,0,71.56,61.14Z"/><path class="a" d="M62.9,61.14a.14.14,0,0,0-.13.14.13.13,0,0,0,.13.14.14.14,0,0,0,.15-.14A.15.15,0,0,0,62.9,61.14Z"/><path class="a" d="M54.25,61.12a.17.17,0,1,0,0,.33.17.17,0,0,0,0-.33Z"/><path class="a" d="M45.59,61.12a.17.17,0,1,0,0,.33.17.17,0,1,0,0-.33Z"/><path class="a" d="M36.92,61.1a.18.18,0,0,0-.18.19.19.19,0,0,0,.18.19.2.2,0,0,0,.2-.19A.19.19,0,0,0,36.92,61.1Z"/><circle class="a" cx="28.27" cy="61.28" r="0.49"/><path class="a" d="M19.62,61a.29.29,0,0,0-.3.29.29.29,0,0,0,.58,0A.29.29,0,0,0,19.62,61Z"/><path class="a" d="M80.23,52.41a.21.21,0,1,0,0,.43.21.21,0,1,0,0-.43Z"/><path class="a" d="M71.56,52.41a.21.21,0,0,0,0,.43.21.21,0,1,0,0-.43Z"/><path class="a" d="M62.9,52.31a.31.31,0,0,0-.31.32.31.31,0,0,0,.31.31.33.33,0,0,0,.33-.31A.33.33,0,0,0,62.9,52.31Z"/><path class="a" d="M54.25,52.31a.31.31,0,0,0-.31.32.31.31,0,0,0,.31.31.31.31,0,0,0,.31-.31A.32.32,0,0,0,54.25,52.31Z"/><path class="a" d="M45.59,52.43a.19.19,0,0,0-.19.19.18.18,0,0,0,.19.19.2.2,0,0,0,.2-.19A.2.2,0,0,0,45.59,52.43Z"/><path class="a" d="M36.92,52.17a.46.46,0,0,0-.45.46.45.45,0,0,0,.45.45.45.45,0,0,0,.46-.45A.45.45,0,0,0,36.92,52.17Z"/><path class="a" d="M28.27,52.17a.46.46,0,0,0-.46.46.45.45,0,0,0,.46.45.46.46,0,0,0,.46-.45A.47.47,0,0,0,28.27,52.17Z"/><path class="a" d="M19.62,52.38a.23.23,0,0,0-.24.24.24.24,0,1,0,.47,0A.23.23,0,0,0,19.62,52.38Z"/><path class="a" d="M80.23,43.72A.25.25,0,0,0,80,44a.24.24,0,1,0,.49,0A.25.25,0,0,0,80.23,43.72Z"/><path class="a" d="M71.56,43.72a.25.25,0,0,0-.23.24.24.24,0,0,0,.23.24.24.24,0,0,0,.25-.24A.25.25,0,0,0,71.56,43.72Z"/><path class="a" d="M62.9,43.6a.36.36,0,0,0,0,.72.36.36,0,1,0,0-.72Z"/><path class="a" d="M54.25,43.56a.41.41,0,0,0,0,.82.41.41,0,0,0,0-.82Z"/><ellipse class="a" cx="45.59" cy="43.96" rx="0.45" ry="0.46"/><path class="a" d="M36.92,43.13a.84.84,0,1,0,.85.84A.83.83,0,0,0,36.92,43.13Z"/><path class="a" d="M28.27,43.1a.86.86,0,1,0,.86.86A.85.85,0,0,0,28.27,43.1Z"/><path class="a" d="M19.62,43.05a.91.91,0,1,0,0,1.83.91.91,0,0,0,0-1.83Z"/><circle class="a" cx="10.94" cy="43.97" r="1.68"/><circle class="a" cx="2.29" cy="43.96" r="0.53"/><ellipse class="a" cx="80.23" cy="35.31" rx="0.33" ry="0.34"/><circle class="a" cx="71.56" cy="35.31" r="0.41"/><path class="a" d="M62.9,34.56a.74.74,0,1,0,.75.75A.74.74,0,0,0,62.9,34.56Z"/><path class="a" d="M54.25,33.6a1.71,1.71,0,1,0,1.7,1.71A1.7,1.7,0,0,0,54.25,33.6Z"/><circle class="a" cx="45.58" cy="35.31" r="1.58"/><path class="a" d="M36.92,33.64a1.66,1.66,0,1,0,1.66,1.66A1.67,1.67,0,0,0,36.92,33.64Z"/><path class="a" d="M28.27,33.51a1.8,1.8,0,1,0,1.8,1.8A1.8,1.8,0,0,0,28.27,33.51Z"/><path class="a" d="M19.62,34.1a1.2,1.2,0,1,0,0,2.41,1.2,1.2,0,0,0,0-2.41Z"/><path class="a" d="M10.94,31.17a4.13,4.13,0,1,0,4.14,4.13A4.12,4.12,0,0,0,10.94,31.17Z"/><path class="a" d="M2.29,35a.31.31,0,1,0,0,.63.31.31,0,0,0,0-.63Z"/><path class="a" d="M80.23,25.18a1.47,1.47,0,1,0,1.46,1.47A1.46,1.46,0,0,0,80.23,25.18Z"/><path class="a" d="M71.56,22.81a3.84,3.84,0,1,0,3.84,3.84A3.85,3.85,0,0,0,71.56,22.81Z"/><path class="a" d="M62.9,24.07a2.57,2.57,0,1,0,2.58,2.58A2.57,2.57,0,0,0,62.9,24.07Z"/><circle class="a" cx="54.25" cy="26.65" r="3.99"/><circle class="a" cx="45.59" cy="26.65" r="5.04"/><circle class="a" cx="36.92" cy="26.65" r="1.68"/><path class="a" d="M28.27,25.68a1,1,0,1,0,1,1A1,1,0,0,0,28.27,25.68Z"/><path class="a" d="M19.62,25.47a1.17,1.17,0,1,0,1.17,1.18A1.18,1.18,0,0,0,19.62,25.47Z"/><path class="a" d="M10.94,25.47a1.17,1.17,0,1,0,1.19,1.18A1.17,1.17,0,0,0,10.94,25.47Z"/><path class="a" d="M2.29,24.46a2.18,2.18,0,1,0,2.18,2.19A2.18,2.18,0,0,0,2.29,24.46Z"/><path class="a" d="M80.23,17.31a.67.67,0,1,0,0,1.35.67.67,0,0,0,0-1.35Z"/><path class="a" d="M71.56,17.31a.67.67,0,0,0,0,1.35.67.67,0,1,0,0-1.35Z"/><path class="a" d="M62.9,17.15a.84.84,0,1,0,.85.84A.84.84,0,0,0,62.9,17.15Z"/><path class="a" d="M54.25,17.56a.43.43,0,0,0-.43.43.43.43,0,0,0,.43.44.44.44,0,0,0,.44-.44A.44.44,0,0,0,54.25,17.56Z"/><path class="a" d="M45.59,17.53A.46.46,0,1,0,46,18,.45.45,0,0,0,45.59,17.53Z"/><path class="a" d="M36.92,17.44a.55.55,0,0,0,0,1.11.55.55,0,0,0,0-1.11Z"/><ellipse class="a" cx="28.27" cy="17.99" rx="0.6" ry="0.6"/><path class="a" d="M19.62,16.61A1.37,1.37,0,1,0,21,18,1.37,1.37,0,0,0,19.62,16.61Z"/><path class="a" d="M10.94,16.61A1.37,1.37,0,1,0,12.32,18,1.37,1.37,0,0,0,10.94,16.61Z"/><ellipse class="a" cx="2.29" cy="17.99" rx="1.92" ry="1.93"/><path class="a" d="M80.23,8.78a.55.55,0,1,0,0,1.1.55.55,0,0,0,0-1.1Z"/><path class="a" d="M71.56,8.27a1.06,1.06,0,1,0,1.06,1.06A1.07,1.07,0,0,0,71.56,8.27Z"/><path class="a" d="M62.9,8.94a.39.39,0,0,0-.38.39.38.38,0,0,0,.38.38.38.38,0,0,0,.4-.38A.39.39,0,0,0,62.9,8.94Z"/><path class="a" d="M54.25,8.89a.43.43,0,0,0-.43.44.42.42,0,0,0,.43.43.44.44,0,0,0,.44-.43A.44.44,0,0,0,54.25,8.89Z"/><path class="a" d="M45.59,8.94a.38.38,0,0,0-.38.39.37.37,0,0,0,.38.38A.38.38,0,0,0,46,9.33.39.39,0,0,0,45.59,8.94Z"/><path class="a" d="M36.92,9a.31.31,0,0,0,0,.62.31.31,0,1,0,0-.62Z"/><path class="a" d="M28.27,9a.29.29,0,1,0,0,.57.29.29,0,1,0,0-.57Z"/><path class="a" d="M19.62,8.89a.44.44,0,0,0-.44.44.43.43,0,0,0,.44.43A.42.42,0,0,0,20,9.33.43.43,0,0,0,19.62,8.89Z"/><path class="a" d="M10.94,8.6a.73.73,0,0,0,0,1.46.73.73,0,1,0,0-1.46Z"/><path class="a" d="M2.29,8.33a1,1,0,1,0,1,1A1,1,0,0,0,2.29,8.33Z"/><path class="a" d="M80.23.28a.37.37,0,0,0-.38.39.38.38,0,1,0,.75,0A.37.37,0,0,0,80.23.28Z"/><circle class="a" cx="71.56" cy="0.67" r="0.45"/><path class="a" d="M62.9.23a.45.45,0,0,0-.43.43.44.44,0,0,0,.43.43.43.43,0,0,0,.44-.43A.44.44,0,0,0,62.9.23Z"/><ellipse class="a" cx="54.25" cy="0.66" rx="0.35" ry="0.36"/><path class="a" d="M45.59.36a.32.32,0,0,0-.31.31.32.32,0,1,0,.63,0A.32.32,0,0,0,45.59.36Z"/><path class="a" d="M36.92.4a.27.27,0,0,0,0,.53A.27.27,0,0,0,37.2.67.27.27,0,0,0,36.92.4Z"/><path class="a" d="M28.27.43A.24.24,0,0,0,28,.67a.24.24,0,1,0,.48,0A.24.24,0,0,0,28.27.43Z"/><path class="a" d="M19.62.43a.23.23,0,0,0-.24.23.24.24,0,1,0,.47,0A.23.23,0,0,0,19.62.43Z"/><path class="a" d="M10.94.28a.38.38,0,0,0-.38.39.38.38,0,0,0,.38.39.39.39,0,0,0,.4-.39A.39.39,0,0,0,10.94.28Z"/><path class="a" d="M2.29.11a.55.55,0,0,0-.55.55.55.55,0,1,0,1.1,0A.55.55,0,0,0,2.29.11Z"/></g></svg>