<svg xmlns="http://www.w3.org/2000/svg" viewBox="0 0 35.8 35.76"><defs><style>.a{fill:#039;}.a,.b{fill-rule:evenodd;}.b{fill:#ff0;}</style></defs><title>itau-logo</title><path class="a" d="M8.06,2.12H31.94a5.71,5.71,0,0,1,4.19,1.73A5.71,5.71,0,0,1,37.9,8.09V31.94a6,6,0,0,1-6,5.94H8.06a5.91,5.91,0,0,1-6-5.94V8.09a5.91,5.91,0,0,1,6-6Z" transform="translate(-2.1 -2.12)"/><path class="b" d="M29.44,22.4h1.93L33.76,20H31.14L29.44,22.4Zm-.71.61H26v5.17a4.29,4.29,0,0,0,1,3.1,3.25,3.25,0,0,0,2.39.86,3.3,3.3,0,0,0,3-1.62h0v1.41H34.9V23H32.12v5.21a1.71,1.71,0,0,1-.07.55,1.73,1.73,0,0,1-1.71,1.16c-1.07,0-1.62-.75-1.62-2.23V23Zm-7.12,3a8,8,0,0,0-4.17.87,2.92,2.92,0,0,0-1.5,2.62,2.68,2.68,0,0,0,.8,1.87,3.19,3.19,0,0,0,2.25.82A3.43,3.43,0,0,0,21.76,31h.07v.93h2.55V26.68a4,4,0,0,0-.91-2.75,4.28,4.28,0,0,0-3.21-1.16,6.85,6.85,0,0,0-3.64.87l.52,1.75a4.94,4.94,0,0,1,2.64-.7c1.23,0,1.82.39,1.82,1.21V26Zm-6.76-3H13.14V20H10.45v3H9.18v2h1.28v3.6a3.72,3.72,0,0,0,.75,2.66,2.83,2.83,0,0,0,2.16.82,4.24,4.24,0,0,0,1.5-.23l0-2.09a.88.88,0,0,1-.52.11,1.05,1.05,0,0,1-1-.48,2.29,2.29,0,0,1-.23-1.23V25.06h1.71V23Zm3.66,6.21c0-1.07,1.07-1.55,3.16-1.53v1l0,.53A1.51,1.51,0,0,1,21,30a1.7,1.7,0,0,1-1.14.41c-.87,0-1.32-.41-1.32-1.18ZM5.06,20V31.94H7.88V20Z" transform="translate(-2.1 -2.12)"/></svg>