<svg xmlns="http://www.w3.org/2000/svg" xmlns:xlink="http://www.w3.org/1999/xlink" viewBox="0 0 1920 1080"><defs><style>.a,.d,.e,.f{fill:none;}.b{clip-path:url(#a);}.c{opacity:0.8;}.d,.e,.f{stroke:#4972b1;stroke-miterlimit:10;}.e{stroke-width:2px;}.f{stroke-width:1.5px;}</style><clipPath id="a"><rect class="a" x="1278.08" width="641.92" height="1080"/></clipPath></defs><title>npc-simbolo</title><g class="b"><g class="c"><path class="d" d="M1842.67,73.83c260.54,0,472.44,210.53,472.44,469.15a26.95,26.95,0,0,0,53.9,0c0-288.12-236.11-522.58-526.34-522.58a26.71,26.71,0,1,0,0,53.43"/><path class="d" d="M1493.12,705.32l140.25-44.09c44.59,93.34,140.08,158.15,250.81,158.15a17.83,17.83,0,1,0,0-35.65c-133.32,0-241.88-107.7-241.88-240.11s108.56-240.12,241.88-240.12a17.82,17.82,0,1,0,0-35.65,277.94,277.94,0,0,0-233.11,126.4L1557,319.41a361.86,361.86,0,0,1,88.11-80.19L1676.73,275a9,9,0,0,0,6.76,3.05,8.75,8.75,0,0,0,5.68-2.09c.45-.36,45.73-37.15,106.81-39.76a8.91,8.91,0,0,0,8.59-9.22,9,9,0,0,0-9.38-8.53c-53.26,2.27-94.62,27.39-110.48,38.52l-24.08-27.2a362.79,362.79,0,0,1,163.11-48.11,26.76,26.76,0,0,0,24.53,15.93,345.76,345.76,0,0,1,129.92,25,27.9,27.9,0,0,0,10.07,1.89,27,27,0,0,0,16.22-5.56,364.86,364.86,0,0,1,77.35,51.6c-1.5,8.43.61,17.39,7.27,23.83A341.83,341.83,0,0,1,2165,402.05a26.72,26.72,0,0,0,18.29,15,358,358,0,0,1,21.12,91.6,26.37,26.37,0,0,0-10,21.49c.18,3.74.18,7.57.18,11.4a341.9,341.9,0,0,1-21,118.4,26.44,26.44,0,0,0,2.89,23.92,361.39,361.39,0,0,1-48.44,80.4c-8.34-1-16.91,1.46-23,8.07a347.18,347.18,0,0,1-105.92,78.91,26.59,26.59,0,0,0-15.06,22.62,361.59,361.59,0,0,1-88,24.1,26.68,26.68,0,0,0-24.89-13.23c-7.63.44-15.23.69-22.95.69a26.76,26.76,0,1,0,0,53.51c8.93,0,17.7-.36,26.46-.87a27,27,0,0,0,24.79-22.62,382.11,382.11,0,0,0,89.79-24.54,26.53,26.53,0,0,0,33.29,8.43,399,399,0,0,0,122.29-91.07,26.39,26.39,0,0,0-.6-36,375.29,375.29,0,0,0,46.87-77.77,25.94,25.94,0,0,0,7.63,1.41,26.8,26.8,0,0,0,25.23-17.6,392.57,392.57,0,0,0,24.36-136.75c0-4.43,0-8.79-.18-13.14-.45-14.27-12.26-25.33-26.28-25.74a374.77,374.77,0,0,0-20.32-87.71,26.54,26.54,0,0,0,12.51-34.62,395.54,395.54,0,0,0-87.6-124.4,26.8,26.8,0,0,0-35.48-1.14,385.48,385.48,0,0,0-76.66-50.88,26.48,26.48,0,0,0-16-30.8,399.62,399.62,0,0,0-150.06-29,26.79,26.79,0,0,0-25.86,19.76,380.11,380.11,0,0,0-178,54.89,9,9,0,0,0-3.86,1.84,4.08,4.08,0,0,0-.6.86c-107.07,67.05-178.54,185.29-178.54,320a9,9,0,0,0,18,0,356.44,356.44,0,0,1,66.84-207.83l95.49,75.85a272.1,272.1,0,0,0-15.59,235.31l-223,70a466,466,0,0,1,82-478.56,26.51,26.51,0,0,0-2.8-37.67,27,27,0,0,0-37.92,2.7,520.53,520.53,0,0,0-128,341.72c0,288.14,236.09,522.58,526.25,522.58a26.71,26.71,0,1,0,0-53.41c-193,0-359.37-115.72-432.6-280.83l65.87-20.71Z"/><path class="d" d="M1884.19,768c125.73,0,228-101.63,228-226.47S2009.92,315,1884.19,315a17.84,17.84,0,1,0,0,35.67c105.92,0,192.22,85.59,192.22,190.86s-86.3,190.86-192.22,190.86a17.8,17.8,0,1,0,0,35.6"/><path class="d" d="M2015.7,543.61c0,72.12-58.87,130.67-131.51,130.67s-131.58-58.55-131.58-130.67,58.86-130.68,131.58-130.68,131.51,58.54,131.51,130.68"/><path class="d" d="M2339.6,543c0,272.51-222.46,493.43-496.88,493.43S1345.83,815.54,1345.83,543,1568.29,49.61,1842.72,49.61,2339.6,270.53,2339.6,543Z"/><path class="e" d="M2218.86,541.68c0,205.56-167.8,372.19-374.79,372.19s-374.79-166.63-374.79-372.19,167.8-372.17,374.79-372.17S2218.86,336.14,2218.86,541.68Z"/><path class="e" d="M2134.84,544.76c0,143-115.19,258.91-257.29,258.91s-257.29-115.91-257.29-258.91,115.19-258.92,257.29-258.92S2134.84,401.76,2134.84,544.76Z"/><path class="f" d="M2159.44,541.32c0,160.72-127.87,291-285.61,291s-285.6-130.3-285.6-291,127.87-291,285.6-291S2159.44,380.59,2159.44,541.32Z"/></g></g></svg>