<svg xmlns="http://www.w3.org/2000/svg" viewBox="0 0 42 42"><defs><style>.a{fill:#fff;}.b{fill:none;}</style></defs><title>npc-simbolo-branco-42x42px</title><path class="a" d="M22.58,29.61a8.67,8.67,0,0,0,0-17.33.68.68,0,0,0,0,1.37,7.3,7.3,0,1,1,0,14.61.68.68,0,1,0,0,1.36"/><path class="a" d="M27.57,21a5,5,0,1,1-5-5,5,5,0,0,1,5,5"/><path class="b" d="M39,21A18,18,0,0,0,21,3a1,1,0,0,1-.93-.6A18.53,18.53,0,0,0,7.57,8.18a1,1,0,0,1-.16,1.08A17.93,17.93,0,0,0,4.3,27.58l8.47-2.68a10.48,10.48,0,0,1,.59-9L9.73,13a13.71,13.71,0,0,0-2.54,8,.34.34,0,0,1-.68,0A14.47,14.47,0,0,1,13.29,8.69l0,0a.34.34,0,0,1,.15-.07,14.37,14.37,0,0,1,6.76-2.1,1,1,0,0,1,1-.76,15.09,15.09,0,0,1,5.7,1.11A1,1,0,0,1,27.52,8,14.65,14.65,0,0,1,30.44,10a1,1,0,0,1,1.35,0,15.13,15.13,0,0,1,3.33,4.76,1,1,0,0,1-.48,1.32,14.42,14.42,0,0,1,.77,3.36,1,1,0,0,1,1,1c0,.17,0,.33,0,.5a15.12,15.12,0,0,1-.93,5.23,1,1,0,0,1-1,.67,1,1,0,0,1-.29-.05,14.37,14.37,0,0,1-1.78,3,1,1,0,0,1,0,1.38,15.17,15.17,0,0,1-4.65,3.49,1,1,0,0,1-1.26-.32,14.44,14.44,0,0,1-3.41.94,1,1,0,0,1-.94.87c-.33,0-.67,0-1,0a1,1,0,0,1,0-2l.87,0a1,1,0,0,1,.95.51,13.67,13.67,0,0,0,3.34-.92,1,1,0,0,1,.57-.87,13.21,13.21,0,0,0,4-3,1,1,0,0,1,.87-.31,13.81,13.81,0,0,0,1.84-3.08,1,1,0,0,1-.11-.92,13.17,13.17,0,0,0,.8-4.53c0-.15,0-.29,0-.44a1,1,0,0,1,.38-.82,13.77,13.77,0,0,0-.8-3.5,1,1,0,0,1-.7-.57,13.08,13.08,0,0,0-2.88-4.12,1,1,0,0,1-.28-.91,13.84,13.84,0,0,0-2.94-2,1,1,0,0,1-.62.21,1.06,1.06,0,0,1-.38-.07,13.06,13.06,0,0,0-4.94-1,1,1,0,0,1-.93-.61A13.71,13.71,0,0,0,14.08,9l.92,1a8.15,8.15,0,0,1,4.2-1.47.34.34,0,1,1,0,.68,7.55,7.55,0,0,0-4.06,1.52.33.33,0,0,1-.22.08.34.34,0,0,1-.26-.12l-1.2-1.37a13.78,13.78,0,0,0-3.35,3.07l3.58,2.86a10.54,10.54,0,0,1,8.86-4.84.68.68,0,0,1,0,1.36,9.19,9.19,0,1,0,0,18.38.68.68,0,0,1,0,1.36A10.56,10.56,0,0,1,13,25.52L7.72,27.21l-.65.21-2.5.79A18,18,0,0,0,21,39a1,1,0,0,1,.93.6A18.6,18.6,0,0,0,39.55,21.93,1,1,0,0,1,39,21Z"/><path class="b" d="M12.77,24.9a10.48,10.48,0,0,1,.59-9L9.73,13a13.71,13.71,0,0,0-2.54,8,.34.34,0,0,1-.17.29A14,14,0,0,0,8.1,26.37Z"/><path class="b" d="M39,21A18,18,0,0,0,21,3a1,1,0,0,1-.93-.6A18.53,18.53,0,0,0,7.57,8.18a1,1,0,0,1-.16,1.08A17.93,17.93,0,0,0,4.3,27.58L7.71,26.5a14.36,14.36,0,0,1-1.1-5.31.34.34,0,0,1-.1-.24A14.47,14.47,0,0,1,13.29,8.69l0,0a.34.34,0,0,1,.15-.07,14.37,14.37,0,0,1,6.76-2.1,1,1,0,0,1,1-.76,15.09,15.09,0,0,1,5.7,1.11A1,1,0,0,1,27.52,8a14.62,14.62,0,0,1,2.55,1.66l.22.18.14.12a1,1,0,0,1,1.35,0,15.13,15.13,0,0,1,3.33,4.76,1,1,0,0,1-.46,1.31,14.33,14.33,0,0,1,.77,3.37,1,1,0,0,1,1,1c0,.17,0,.33,0,.5a15.12,15.12,0,0,1-.93,5.23,1,1,0,0,1-1,.67,1,1,0,0,1-.27,0,14.46,14.46,0,0,1-1.79,3,1,1,0,0,1,0,1.37,15.17,15.17,0,0,1-4.65,3.49,1,1,0,0,1-1.26-.32,14.44,14.44,0,0,1-3.41.94,1,1,0,0,1-.94.87c-.33,0-.67,0-1,0a1,1,0,0,1-1-.78A14.47,14.47,0,0,1,8,27.12l-.28.09-.65.21-2.5.79A18,18,0,0,0,21,39a1,1,0,0,1,.93.6A18.6,18.6,0,0,0,39.55,21.93,1,1,0,0,1,39,21Z"/><path class="b" d="M20.21,35a1,1,0,0,1,1-.86l.87,0a1,1,0,0,1,.95.51,13.67,13.67,0,0,0,3.34-.92,1,1,0,0,1,.57-.87,13.21,13.21,0,0,0,4-3,1,1,0,0,1,.87-.31,13.81,13.81,0,0,0,1.84-3.08,1,1,0,0,1-.11-.92,13.17,13.17,0,0,0,.8-4.53c0-.15,0-.29,0-.44a1,1,0,0,1,.38-.82,13.77,13.77,0,0,0-.8-3.5,1,1,0,0,1-.7-.57,13.08,13.08,0,0,0-2.88-4.12,1,1,0,0,1-.28-.91,13.84,13.84,0,0,0-2.94-2,1,1,0,0,1-.62.21,1.06,1.06,0,0,1-.38-.07,13.06,13.06,0,0,0-4.94-1,1,1,0,0,1-.93-.61A13.71,13.71,0,0,0,14.08,9l.92,1a8.15,8.15,0,0,1,4.2-1.47.34.34,0,1,1,0,.68,7.55,7.55,0,0,0-4.06,1.52.33.33,0,0,1-.22.08.34.34,0,0,1-.26-.12l-1.2-1.37a13.78,13.78,0,0,0-3.35,3.07l3.58,2.86a10.54,10.54,0,0,1,8.86-4.84.68.68,0,0,1,.66.53,10.12,10.12,0,0,1,0,20.14.68.68,0,0,1-.63.44A10.56,10.56,0,0,1,13,25.52L8.39,27A14.06,14.06,0,0,0,20.21,35Z"/><path class="b" d="M22.58,30.21a.68.68,0,0,1,.66.51,9.72,9.72,0,0,0,0-19.32.68.68,0,0,1-.63.43,9.19,9.19,0,1,0,0,18.38Z"/><path class="a" d="M21,1a1,1,0,0,0-1,.84A19.14,19.14,0,0,0,7.16,7.72a1,1,0,0,0-1.3.2A20,20,0,0,0,21,41a1,1,0,0,0,1-.84A19.22,19.22,0,0,0,40.16,22,1,1,0,0,0,41,21,20,20,0,0,0,21,1Zm.93,38.55A1,1,0,0,0,21,39,18,18,0,0,1,4.56,28.21l2.5-.79.65-.21L8,27.12a14.47,14.47,0,0,0,12.23,8.25,1,1,0,0,0,1,.78c.34,0,.67,0,1,0a1,1,0,0,0,.94-.87,14.44,14.44,0,0,0,3.41-.94,1,1,0,0,0,1.26.32,15.17,15.17,0,0,0,4.65-3.49,1,1,0,0,0,0-1.37,14.46,14.46,0,0,0,1.79-3,1,1,0,0,0,.27,0,1,1,0,0,0,1-.67,15.12,15.12,0,0,0,.93-5.23c0-.17,0-.34,0-.5a1,1,0,0,0-1-1,14.33,14.33,0,0,0-.77-3.37,1,1,0,0,0,.46-1.31A15.13,15.13,0,0,0,31.78,10a1,1,0,0,0-1.35,0l-.14-.12-.22-.18A14.62,14.62,0,0,0,27.52,8a1,1,0,0,0-.61-1.18,15.09,15.09,0,0,0-5.7-1.11,1,1,0,0,0-1,.76,14.37,14.37,0,0,0-6.76,2.1.34.34,0,0,0-.15.07l0,0A14.47,14.47,0,0,0,6.51,20.94a.34.34,0,0,0,.1.24,14.36,14.36,0,0,0,1.1,5.31L4.3,27.58A17.93,17.93,0,0,1,7.41,9.26a1,1,0,0,0,.16-1.08,18.53,18.53,0,0,1,12.5-5.73A1,1,0,0,0,21,3,18,18,0,0,1,39,21a1,1,0,0,0,.6.93A18.6,18.6,0,0,1,21.93,39.55ZM7.19,20.94a13.71,13.71,0,0,1,2.54-8l3.63,2.9a10.48,10.48,0,0,0-.59,9L8.1,26.37A14,14,0,0,1,7,21.23.34.34,0,0,0,7.19,20.94ZM13,25.52a10.56,10.56,0,0,0,9.53,6.05.68.68,0,0,0,.63-.44,10.12,10.12,0,0,0,0-20.14.68.68,0,0,0-.66-.53,10.54,10.54,0,0,0-8.86,4.84l-3.58-2.86a13.78,13.78,0,0,1,3.35-3.07l1.2,1.37a.34.34,0,0,0,.26.12.33.33,0,0,0,.22-.08,7.55,7.55,0,0,1,4.06-1.52.34.34,0,1,0,0-.68A8.15,8.15,0,0,0,15,10.05l-.92-1a13.71,13.71,0,0,1,6.2-1.84,1,1,0,0,0,.93.61,13.06,13.06,0,0,1,4.94,1,1.06,1.06,0,0,0,.38.07,1,1,0,0,0,.62-.21,13.84,13.84,0,0,1,2.94,2,1,1,0,0,0,.28.91,13.08,13.08,0,0,1,2.88,4.12,1,1,0,0,0,.7.57,13.77,13.77,0,0,1,.8,3.5,1,1,0,0,0-.38.82c0,.14,0,.29,0,.44a13.17,13.17,0,0,1-.8,4.53,1,1,0,0,0,.11.92,13.81,13.81,0,0,1-1.84,3.08,1,1,0,0,0-.87.31,13.21,13.21,0,0,1-4,3,1,1,0,0,0-.57.87,13.67,13.67,0,0,1-3.34.92,1,1,0,0,0-.95-.51l-.87,0a1,1,0,0,0-1,.86A14.06,14.06,0,0,1,8.39,27Zm.34-4.5a9.2,9.2,0,0,1,9.19-9.19.68.68,0,0,0,.63-.43,9.72,9.72,0,0,1,0,19.32.68.68,0,0,0-.66-.51A9.2,9.2,0,0,1,13.38,21Z"/><path class="a" d="M33.19,20.93c0-.22,0-.44,0-.65h.19a11.27,11.27,0,0,0-1.23-4.47l-.11.07a11.37,11.37,0,0,0-.67-1.19l.1-.06a11.89,11.89,0,0,0-3.27-3.26l0,.07A10.93,10.93,0,0,0,27,10.76l0-.07a11.52,11.52,0,0,0-2.49-.93.34.34,0,0,0-.3.08,10.75,10.75,0,0,0-2-.19,11.16,11.16,0,0,0-11,11.29,11.16,11.16,0,0,0,11,11.29,10.75,10.75,0,0,0,2-.19.34.34,0,0,0,.34.13A11.18,11.18,0,0,0,27,31.28l-.09-.16a10.92,10.92,0,0,0,1.18-.68l.1.17a11.38,11.38,0,0,0,3.3-3.29l-.19-.11A11.37,11.37,0,0,0,32,26l.18.1a11.59,11.59,0,0,0,1.19-4.49h-.2C33.18,21.41,33.19,21.17,33.19,20.93Zm-2.13,6.13L30.92,27a10.59,10.59,0,0,1-3.05,3l.09.16a10.62,10.62,0,0,1-1.18.68l-.1-.17a10.87,10.87,0,0,1-2.32.81.34.34,0,0,0-.25.24,10.44,10.44,0,0,1-1.92.18,10.86,10.86,0,0,1-10.7-11,10.86,10.86,0,0,1,10.7-11,10.44,10.44,0,0,1,1.91.18.34.34,0,0,0,.26.29,10.64,10.64,0,0,1,2.31.86L26.8,11a10.62,10.62,0,0,1,1.18.68l-.15.25a11.11,11.11,0,0,1,3,3l.22-.13A11.06,11.06,0,0,1,31.75,16l-.21.12a10.62,10.62,0,0,1,1.14,4.13h.18c0,.22,0,.43,0,.65s0,.47,0,.71h-.18a10.88,10.88,0,0,1-1.09,4.15l.15.08A11.07,11.07,0,0,1,31.06,27.06Z"/></svg>