<svg xmlns="http://www.w3.org/2000/svg" viewBox="0 0 90 36"><defs><style>.a{fill:#fff;}.b{fill:#2d73b4;}.c,.d{fill:none;stroke:#fff;stroke-miterlimit:10;}.d{stroke-width:0.5px;}</style></defs><title>npx-logo</title><path class="a" d="M54.61,27.85a1.67,1.67,0,0,1-.13.69,1.44,1.44,0,0,1-.36.5,1.39,1.39,0,0,1-.54.29,2.19,2.19,0,0,1-.63.09H51.07a3.87,3.87,0,0,1-1-.12,2,2,0,0,1-.79-.43,3.72,3.72,0,0,1-.7-.84q-.34-.53-.75-1.37l-5.4-10.14q-.47-.91-1-2t-.87-2h0q.07,1.21.1,2.41t0,2.47V28.78a.52.52,0,0,1-.09.3.69.69,0,0,1-.32.23,2.57,2.57,0,0,1-.61.14,8,8,0,0,1-1,0,7.82,7.82,0,0,1-1,0,2.42,2.42,0,0,1-.6-.14.63.63,0,0,1-.3-.23.56.56,0,0,1-.08-.3V9.28a1.47,1.47,0,0,1,.46-1.18,1.68,1.68,0,0,1,1.13-.39h2.36a4.47,4.47,0,0,1,1.07.11,2.21,2.21,0,0,1,.78.36,2.79,2.79,0,0,1,.65.7,9,9,0,0,1,.62,1.1L48,17.9l.73,1.42q.36.7.7,1.39l.65,1.37q.32.67.62,1.34h0q0-1.17-.07-2.45t0-2.43V8.36a.49.49,0,0,1,.1-.3.81.81,0,0,1,.34-.24,2.25,2.25,0,0,1,.62-.14,9.65,9.65,0,0,1,1,0,9.23,9.23,0,0,1,1,0,1.92,1.92,0,0,1,.6.14.68.68,0,0,1,.29.24.55.55,0,0,1,.08.3Z"/><path class="a" d="M71.45,14.29a8.59,8.59,0,0,1-.57,3.24,6.25,6.25,0,0,1-1.66,2.37,7.31,7.31,0,0,1-2.67,1.47,12.39,12.39,0,0,1-3.73.5H61v6.92a.47.47,0,0,1-.11.3.76.76,0,0,1-.36.22,3.51,3.51,0,0,1-.67.13,11.49,11.49,0,0,1-2.14,0,3.5,3.5,0,0,1-.68-.13.71.71,0,0,1-.35-.22.49.49,0,0,1-.1-.3V9.28A1.57,1.57,0,0,1,57,8.1a1.5,1.5,0,0,1,1.08-.39h5.11q.77,0,1.47.06A15.41,15.41,0,0,1,66.34,8a7.37,7.37,0,0,1,2,.71A5.85,5.85,0,0,1,70,10a5.49,5.49,0,0,1,1.07,1.86A7.27,7.27,0,0,1,71.45,14.29Zm-4.61.32a3.89,3.89,0,0,0-.4-1.88,2.78,2.78,0,0,0-1-1.09,3.29,3.29,0,0,0-1.23-.44,9.57,9.57,0,0,0-1.33-.09H61v7.36h2a4.78,4.78,0,0,0,1.77-.29,3,3,0,0,0,1.17-.8,3.43,3.43,0,0,0,.69-1.22A4.94,4.94,0,0,0,66.84,14.61Z"/><path class="a" d="M88.5,26.11q0,.42,0,.71a3.48,3.48,0,0,1-.08.5,1.39,1.39,0,0,1-.13.36A1.75,1.75,0,0,1,88,28a3.39,3.39,0,0,1-.71.49A8.37,8.37,0,0,1,86,29.1a11.31,11.31,0,0,1-1.74.46,11.55,11.55,0,0,1-2.12.18,11.17,11.17,0,0,1-4-.69A7.94,7.94,0,0,1,75,27a9.16,9.16,0,0,1-1.93-3.41,15.29,15.29,0,0,1-.67-4.76,15.07,15.07,0,0,1,.74-4.91,10.22,10.22,0,0,1,2.06-3.6,8.63,8.63,0,0,1,3.18-2.21,10.72,10.72,0,0,1,4.08-.75,9.84,9.84,0,0,1,1.74.15,10.66,10.66,0,0,1,1.55.39,7.73,7.73,0,0,1,1.28.56,3.79,3.79,0,0,1,.8.54,1.88,1.88,0,0,1,.31.38,1.39,1.39,0,0,1,.13.39,4,4,0,0,1,.08.55c0,.21,0,.48,0,.79s0,.62,0,.85a2.21,2.21,0,0,1-.12.57.78.78,0,0,1-.2.32.4.4,0,0,1-.27.1,1.17,1.17,0,0,1-.64-.29,10.4,10.4,0,0,0-1-.65,8.07,8.07,0,0,0-1.46-.65,6.2,6.2,0,0,0-2-.29,4.77,4.77,0,0,0-4,2,7.1,7.1,0,0,0-1.08,2.37,12.29,12.29,0,0,0-.37,3.14,12.3,12.3,0,0,0,.39,3.31,6.4,6.4,0,0,0,1.12,2.3,4.54,4.54,0,0,0,1.76,1.35,5.8,5.8,0,0,0,2.32.44,6.61,6.61,0,0,0,2-.28,8.46,8.46,0,0,0,1.47-.61q.61-.33,1-.6a1.26,1.26,0,0,1,.61-.27.48.48,0,0,1,.27.07.51.51,0,0,1,.17.27,2.62,2.62,0,0,1,.1.56C88.48,25.39,88.5,25.71,88.5,26.11Z"/><path class="a" d="M17.47,3.66A14.35,14.35,0,0,1,31.81,18a.82.82,0,1,0,1.64,0,16,16,0,0,0-16-16,.82.82,0,0,0,0,1.63"/><path class="a" d="M6.87,23l4.26-1.35a8.43,8.43,0,0,0,7.61,4.83.54.54,0,0,0,0-1.09,7.34,7.34,0,1,1,0-14.67.54.54,0,0,0,0-1.09,8.42,8.42,0,0,0-7.07,3.86L8.81,11.17a11,11,0,0,1,2.67-2.45l1,1.09a.27.27,0,0,0,.38,0,6,6,0,0,1,3.24-1.21.27.27,0,1,0,0-.54,6.49,6.49,0,0,0-3.35,1.18L12,8.43A10.94,10.94,0,0,1,16.9,7a.81.81,0,0,0,.74.49,10.44,10.44,0,0,1,3.94.76.81.81,0,0,0,.31.06.82.82,0,0,0,.49-.17,11.05,11.05,0,0,1,2.35,1.58.81.81,0,0,0,.22.73,10.44,10.44,0,0,1,2.3,3.29.81.81,0,0,0,.56.46,11,11,0,0,1,.64,2.8.81.81,0,0,0-.3.66c0,.12,0,.23,0,.35a10.5,10.5,0,0,1-.64,3.62.81.81,0,0,0,.09.73,11,11,0,0,1-1.47,2.46.8.8,0,0,0-.7.25,10.53,10.53,0,0,1-3.21,2.41.81.81,0,0,0-.46.69,10.89,10.89,0,0,1-2.67.74.81.81,0,0,0-.76-.4l-.7,0a.82.82,0,0,0,0,1.64l.8,0a.82.82,0,0,0,.75-.69,11.51,11.51,0,0,0,2.72-.75.82.82,0,0,0,.65.34.81.81,0,0,0,.36-.08,12.11,12.11,0,0,0,3.71-2.78.81.81,0,0,0,0-1.1A11.46,11.46,0,0,0,28,22.63a.8.8,0,0,0,.23,0,.81.81,0,0,0,.77-.54A12.07,12.07,0,0,0,29.79,18c0-.14,0-.27,0-.4a.82.82,0,0,0-.8-.79,11.52,11.52,0,0,0-.62-2.68A.81.81,0,0,0,28.75,13a12.09,12.09,0,0,0-2.66-3.8.81.81,0,0,0-1.08,0,11.7,11.7,0,0,0-2.33-1.55.81.81,0,0,0-.49-.94,12.06,12.06,0,0,0-4.55-.88.81.81,0,0,0-.78.6,11.48,11.48,0,0,0-5.4,1.68.28.28,0,0,0-.12.06l0,0A11.55,11.55,0,0,0,5.9,18a.27.27,0,0,0,.54,0,11,11,0,0,1,2-6.35l2.9,2.32a8.37,8.37,0,0,0-.47,7.19L4.14,23.25A14.32,14.32,0,0,1,6.63,8.63.82.82,0,0,0,5.39,7.56,16,16,0,0,0,17.47,34a.82.82,0,1,0,0-1.63A14.36,14.36,0,0,1,4.35,23.76l2-.63"/><path class="a" d="M18.73,24.87a6.92,6.92,0,0,0,0-13.84.55.55,0,0,0,0,1.09,5.83,5.83,0,1,1,0,11.67.54.54,0,1,0,0,1.09"/><path class="b" d="M20.27,26.91a8.93,8.93,0,0,0,2-.71L22,25.73a8.69,8.69,0,0,1-1.86.65.27.27,0,0,0-.21.33.27.27,0,0,0,.32.2"/><path class="b" d="M23,25.2l.27.47A9.09,9.09,0,0,0,25.87,23l-.47-.27A8.45,8.45,0,0,1,23,25.2"/><path class="b" d="M25.35,13.19l.47-.27a9.52,9.52,0,0,0-2.61-2.6l-.27.47a8.89,8.89,0,0,1,2.42,2.4"/><path class="b" d="M25.93,21.83l.47.27a9.25,9.25,0,0,0,.95-3.59H26.8a8.7,8.7,0,0,1-.87,3.31"/><path class="b" d="M22,10.24l.27-.47a9.2,9.2,0,0,0-2-.74.27.27,0,0,0-.13.53,8.53,8.53,0,0,1,1.84.68"/><path class="b" d="M26.37,13.86l-.47.27a8.49,8.49,0,0,1,.91,3.29h.54a9,9,0,0,0-1-3.57"/><path class="a" d="M22.72,18a4,4,0,1,1-4-4,4,4,0,0,1,4,4"/><circle class="c" cx="17.48" cy="18" r="15.08"/><circle class="c" cx="17.52" cy="17.96" r="11.37"/><ellipse class="d" cx="18.53" cy="18.05" rx="7.81" ry="7.91"/><ellipse class="c" cx="18.42" cy="17.95" rx="8.67" ry="8.89"/></svg>