<svg xmlns="http://www.w3.org/2000/svg" viewBox="0 0 723.89 166.5"><defs><style>.a{fill:#fff;}.b{fill:#2d73b4;}.c,.d,.e,.g{fill:none;stroke-miterlimit:10;}.c,.d,.e{stroke:#fff;}.c{stroke-width:3px;}.d{stroke-width:2px;}.e{stroke-width:1.5px;}.f{opacity:0.3;}.g{stroke:#eee;}.h{fill:#231f20;}.i{fill:#ffde5a;}</style></defs><title>npc-logo-login</title><path class="a" d="M326.66,22.92H330V53.08h-5.47L316.08,29A24.16,24.16,0,0,1,315,24.41h-.08c0,1.53.08,3.1.08,4.63V53.08h-3.34V22.92H317l8.57,24.69c.36.92.64,1.89,1,3.3h.08c0-1.09-.08-2.25-.08-3.38Z" transform="translate(-0.55 -1.75)"/><path class="a" d="M345.48,22.32c8.81,0,9.89,8.12,9.85,15,0,8.37-1.13,16.45-9.93,16.45s-9.85-8.08-9.93-16.45C335.47,30.44,336.51,22.32,345.48,22.32Zm-.16,3c-5.15,0-6.44,5.39-6.39,12.11,0,8.73.93,13.35,6.48,13.35s6.44-4.63,6.48-13.35C351.92,30.72,350.63,25.33,345.32,25.33Z" transform="translate(-0.55 -1.75)"/><path class="a" d="M375.88,22.92h3.7L370.9,53.08h-4.14l-8.65-30.16h3.7l7,27.75h.08Z" transform="translate(-0.55 -1.75)"/><path class="a" d="M387.58,22.92H392l8.49,30.16h-3.7l-2.37-8.69h-9.53l-2.21,8.69H379Zm2.17,2.41h-.08l-4,16h8Z" transform="translate(-0.55 -1.75)"/><path class="a" d="M310.66,92.65V62.49h8.41c2.74,0,6.68.24,8.65,2.49,1.65,1.85,2,4.1,2,6.56,0,3.26-.76,6.92-4,8.41-2.45,1.21-5.31.84-8,1V92.65Zm7.08-17.17c1.33,0,2.86.12,4-.76a4.57,4.57,0,0,0,.89-3.06c0-1.17-.12-2.94-1.33-3.5a9.22,9.22,0,0,0-2.77-.24h-.76Z" transform="translate(-0.55 -1.75)"/><path class="a" d="M332.37,92.65V62.49h7.08V86.62h8.65v6Z" transform="translate(-0.55 -1.75)"/><path class="a" d="M349.1,92.65l6.6-30.16h8.53l6.56,30.16h-7.16l-1-5.87h-5.55l-.84,5.87ZM360,68h-.08l-2.05,13.51h4.1Z" transform="translate(-0.55 -1.75)"/><path class="a" d="M369.77,62.49h18.34v6H382.4V92.65h-7.08V68.52h-5.55Z" transform="translate(-0.55 -1.75)"/><path class="a" d="M387.14,92.65l6.6-30.16h8.53l6.56,30.16h-7.16l-1-5.87H395.1l-.84,5.87ZM398,68h-.08l-2.05,13.51H400Z" transform="translate(-0.55 -1.75)"/><path class="a" d="M411.11,92.65V62.49h16.65v6h-9.57v5.35H427v6h-8.81V92.65Z" transform="translate(-0.55 -1.75)"/><path class="a" d="M450,83c0,6.8-2.37,10.34-9.53,10.34s-9.65-3.54-9.65-10.34V70.77c0-5.79,3.46-9,9.65-9S450,65,450,70.77ZM443,71.25c0-1.85-.16-4.06-2.49-4.06s-2.53,2.21-2.53,4.06V83.64c0,1.73.28,4.3,2.57,4.3s2.45-2.57,2.45-4.3Z" transform="translate(-0.55 -1.75)"/><path class="a" d="M460.37,92.65h-7.08V62.49h10.34c5.79,0,8.69,2.33,8.69,8.33,0,3.22-.76,5.51-3.74,6.88v.08a4.16,4.16,0,0,1,3.5,3.9c.2,2.41.24,7.6.64,9.53a2.64,2.64,0,0,0,.68,1v.4h-7.72a6.37,6.37,0,0,1-.4-1.73c-.12-2.65,0-5.15-.16-7s-.76-3.06-2.41-3.18h-2.33Zm0-17.33h2.41c2.05,0,2.53-1.89,2.53-3.74,0-3.58-1.49-3.74-4.95-3.66Z" transform="translate(-0.55 -1.75)"/><path class="a" d="M475.93,92.65V62.49h10l3.66,17.82h.08l3.78-17.82h9.89V92.65h-6.76L497.29,69h-.08l-5,23.65H487L482.09,69H482l.64,23.65Z" transform="translate(-0.55 -1.75)"/><path class="a" d="M505.61,92.65l6.6-30.16h8.53l6.56,30.16h-7.16l-1-5.87h-5.55l-.84,5.87ZM516.47,68h-.08l-2.05,13.51h4.1Z" transform="translate(-0.55 -1.75)"/><path class="a" d="M537.14,92.48V62.32h7.68c2.57,0,5.67.08,8,1.41,2.73,1.61,3.18,4.54,3.18,7.44V84.56c0,3-1,5.23-3,6.52a11.28,11.28,0,0,1-6.27,1.41Zm7.08-5.43c4.75.32,4.79-1.61,4.67-5.63V71.57c0-3.54-1.21-3.74-4.67-3.82Z" transform="translate(-0.55 -1.75)"/><path class="a" d="M559.5,92.48V62.32h16.21v6h-9.13V73.9h8.85v6h-8.85v6.52h9.61v6Z" transform="translate(-0.55 -1.75)"/><path class="a" d="M597.71,72.88V70.94c0-2.57-.92-3.9-2.25-3.9-2.21,0-2.74,1.17-2.74,3.14l0,14.92c0,1.69.68,2.7,2.53,2.7,2.41,0,2.61-2.49,2.61-4.34V80.72h7.08v3.7c0,5.19-3,8.81-10.22,8.81-6.52,0-9-3.46-9-9.61V71.23c0-6.56,3-9.61,9.49-9.61,6,0,9.65,2.57,9.65,8.73v2.53Z" transform="translate(-0.55 -1.75)"/><path class="a" d="M615.2,92.5h-7.08V62.34h10.34c5.79,0,8.69,2.33,8.69,8.33,0,3.22-.76,5.51-3.74,6.88v.08a4.16,4.16,0,0,1,3.5,3.9c.2,2.41.24,7.6.64,9.53a2.63,2.63,0,0,0,.68,1v.4h-7.72a6.37,6.37,0,0,1-.4-1.73c-.12-2.65,0-5.15-.16-7s-.76-3.06-2.41-3.18H615.2Zm0-17.33h2.41c2.05,0,2.53-1.89,2.53-3.74,0-3.58-1.49-3.74-4.95-3.66Z" transform="translate(-0.55 -1.75)"/><path class="a" d="M630.65,92.5V62.34h16.21v6h-9.13v5.55h8.85v6h-8.85v6.52h9.61v6Zm16.45-39.09-6.88,6h-5.51l4-6Z" transform="translate(-0.55 -1.75)"/><path class="a" d="M650.75,92.5V62.34h7.68c2.57,0,5.67.08,8,1.41,2.73,1.61,3.18,4.54,3.18,7.44V84.58c0,3-1,5.23-3,6.52a11.28,11.28,0,0,1-6.27,1.41Zm7.08-5.43c4.75.32,4.79-1.61,4.67-5.63V71.59c0-3.54-1.21-3.74-4.67-3.82Z" transform="translate(-0.55 -1.75)"/><path class="a" d="M673.31,92.5V62.34h7.08V92.5Z" transform="translate(-0.55 -1.75)"/><path class="a" d="M683.32,62.34h18.34v6H696V92.5h-7.08V68.37h-5.55Z" transform="translate(-0.55 -1.75)"/><path class="a" d="M723.34,82.89c0,6.8-2.37,10.34-9.53,10.34s-9.65-3.54-9.65-10.34V70.62c0-5.79,3.46-9,9.65-9s9.53,3.22,9.53,9ZM716.26,71.1c0-1.85-.16-4.06-2.49-4.06s-2.53,2.21-2.53,4.06V83.49c0,1.73.28,4.3,2.57,4.3s2.45-2.57,2.45-4.3Z" transform="translate(-0.55 -1.75)"/><path class="a" d="M175.24,86.71A5.52,5.52,0,0,1,174.8,89a4.78,4.78,0,0,1-1.19,1.65,4.58,4.58,0,0,1-1.77,1,7.25,7.25,0,0,1-2.07.3H163.6a12.68,12.68,0,0,1-3.34-.39,6.64,6.64,0,0,1-2.59-1.41,12.32,12.32,0,0,1-2.29-2.76q-1.1-1.74-2.48-4.49L135.15,49.48q-1.54-3-3.14-6.43t-2.87-6.7H129q.22,4,.33,7.91t.11,8.13V89.74a1.72,1.72,0,0,1-.3,1,2.26,2.26,0,0,1-1,.74,8.37,8.37,0,0,1-2,.47,26.15,26.15,0,0,1-3.25.17,25.57,25.57,0,0,1-3.2-.17,7.88,7.88,0,0,1-2-.47,2.07,2.07,0,0,1-1-.74,1.83,1.83,0,0,1-.28-1V25.6a4.83,4.83,0,0,1,1.52-3.89,5.53,5.53,0,0,1,3.72-1.3h7.78a14.82,14.82,0,0,1,3.53.36A7.31,7.31,0,0,1,135.51,22a9.19,9.19,0,0,1,2.12,2.29,29.45,29.45,0,0,1,2,3.61l13.9,26.09q1.21,2.37,2.4,4.66t2.29,4.58l2.15,4.49q1,2.21,2,4.41h.06q-.17-3.86-.25-8.05t-.08-8V22.57a1.61,1.61,0,0,1,.33-1,2.65,2.65,0,0,1,1.1-.77,7.28,7.28,0,0,1,2-.47,31.43,31.43,0,0,1,3.25-.14,30.11,30.11,0,0,1,3.14.14,6.23,6.23,0,0,1,2,.47,2.25,2.25,0,0,1,1,.77,1.84,1.84,0,0,1,.28,1Z" transform="translate(-0.55 -1.75)"/><path class="a" d="M230.66,42.09a28.22,28.22,0,0,1-1.88,10.64,20.54,20.54,0,0,1-5.46,7.8,24.06,24.06,0,0,1-8.8,4.83A40.7,40.7,0,0,1,202.25,67h-6V89.8a1.53,1.53,0,0,1-.36,1,2.51,2.51,0,0,1-1.19.72,11.58,11.58,0,0,1-2.21.44,37.48,37.48,0,0,1-7,0,11.61,11.61,0,0,1-2.23-.44,2.32,2.32,0,0,1-1.16-.72,1.61,1.61,0,0,1-.33-1V25.6a5.15,5.15,0,0,1,1.35-3.89,4.92,4.92,0,0,1,3.56-1.3h16.82q2.54,0,4.83.19a51.12,51.12,0,0,1,5.49.83,24.3,24.3,0,0,1,6.48,2.34,19.29,19.29,0,0,1,5.6,4.33,18.07,18.07,0,0,1,3.53,6.12A23.93,23.93,0,0,1,230.66,42.09Zm-15.17,1A12.82,12.82,0,0,0,214.17,37a9.14,9.14,0,0,0-3.25-3.58,10.79,10.79,0,0,0-4.05-1.46,31,31,0,0,0-4.38-.3H196.3V55.82h6.51a15.74,15.74,0,0,0,5.82-.94,9.94,9.94,0,0,0,3.83-2.62,11.34,11.34,0,0,0,2.26-4A16.22,16.22,0,0,0,215.49,43.14Z" transform="translate(-0.55 -1.75)"/><path class="a" d="M286.72,81q0,1.38-.08,2.34a11.37,11.37,0,0,1-.25,1.65,4.71,4.71,0,0,1-.44,1.19,5.83,5.83,0,0,1-.88,1.13,11.2,11.2,0,0,1-2.34,1.63,27.56,27.56,0,0,1-4.25,1.9,37,37,0,0,1-5.74,1.52,37.81,37.81,0,0,1-7,.61,36.74,36.74,0,0,1-13.24-2.26,26.12,26.12,0,0,1-10-6.76,30.18,30.18,0,0,1-6.34-11.22A50.32,50.32,0,0,1,233.94,57a49.59,49.59,0,0,1,2.43-16.16A33.64,33.64,0,0,1,243.15,29a28.39,28.39,0,0,1,10.45-7.28A35.28,35.28,0,0,1,267,19.26a32.38,32.38,0,0,1,5.74.5,35.14,35.14,0,0,1,5.1,1.3,25.65,25.65,0,0,1,4.22,1.85,12.66,12.66,0,0,1,2.62,1.79,6.21,6.21,0,0,1,1,1.24,4.63,4.63,0,0,1,.44,1.27,14.18,14.18,0,0,1,.25,1.82q.08,1,.08,2.59t-.11,2.81A7.29,7.29,0,0,1,286,36.3a2.59,2.59,0,0,1-.66,1,1.32,1.32,0,0,1-.88.33,3.81,3.81,0,0,1-2.1-1,34.52,34.52,0,0,0-3.28-2.15,26.77,26.77,0,0,0-4.8-2.15,20.38,20.38,0,0,0-6.65-1,15.7,15.7,0,0,0-13.26,6.7,23.27,23.27,0,0,0-3.56,7.8,40.29,40.29,0,0,0-1.21,10.31,40.47,40.47,0,0,0,1.3,10.89,21,21,0,0,0,3.7,7.58,14.94,14.94,0,0,0,5.79,4.44A19.12,19.12,0,0,0,268,80.64a21.77,21.77,0,0,0,6.67-.91,28.06,28.06,0,0,0,4.83-2q2-1.1,3.31-2a4.1,4.1,0,0,1,2-.88,1.58,1.58,0,0,1,.88.22,1.66,1.66,0,0,1,.55.88,8.7,8.7,0,0,1,.33,1.85Q286.72,79,286.72,81Z" transform="translate(-0.55 -1.75)"/><path class="a" d="M53.09,7.12a47.22,47.22,0,0,1,47.16,47.16,2.69,2.69,0,1,0,5.38,0A52.6,52.6,0,0,0,53.09,1.75a2.69,2.69,0,0,0,0,5.37" transform="translate(-0.55 -1.75)"/><path class="a" d="M18.19,70.6l14-4.43a27.73,27.73,0,0,0,25,15.9,1.79,1.79,0,0,0,0-3.58,24.14,24.14,0,1,1,0-48.27,1.79,1.79,0,0,0,0-3.58A27.7,27.7,0,0,0,34,39.33l-9.39-7.52a36.2,36.2,0,0,1,8.8-8.06l3.16,3.59a.89.89,0,0,0,.67.31.87.87,0,0,0,.57-.21,19.83,19.83,0,0,1,10.66-4,.89.89,0,1,0-.08-1.79,21.4,21.4,0,0,0-11,3.87l-2.4-2.73A36,36,0,0,1,51.2,18a2.67,2.67,0,0,0,2.45,1.6,34.3,34.3,0,0,1,13,2.52,2.78,2.78,0,0,0,1,.19,2.69,2.69,0,0,0,1.62-.56A36.35,36.35,0,0,1,77,26.89a2.65,2.65,0,0,0,.72,2.4,34.35,34.35,0,0,1,7.57,10.83,2.68,2.68,0,0,0,1.83,1.51,36.17,36.17,0,0,1,2.11,9.21,2.66,2.66,0,0,0-1,2.16c0,.38,0,.76,0,1.15A34.59,34.59,0,0,1,86.12,66a2.68,2.68,0,0,0,.29,2.4,36.28,36.28,0,0,1-4.84,8.08,2.63,2.63,0,0,0-2.29.81,34.69,34.69,0,0,1-10.57,7.93,2.67,2.67,0,0,0-1.5,2.27A35.91,35.91,0,0,1,58.42,90a2.66,2.66,0,0,0-2.48-1.33c-.76,0-1.52.07-2.29.07a2.69,2.69,0,0,0,0,5.38c.89,0,1.77,0,2.64-.09a2.7,2.7,0,0,0,2.47-2.27,38,38,0,0,0,9-2.47A2.63,2.63,0,0,0,71,90.1a39.84,39.84,0,0,0,12.21-9.16,2.67,2.67,0,0,0-.06-3.62,37.76,37.76,0,0,0,4.68-7.82,2.57,2.57,0,0,0,.76.14,2.68,2.68,0,0,0,2.52-1.77,39.72,39.72,0,0,0,2.43-13.75c0-.44,0-.88,0-1.32a2.69,2.69,0,0,0-2.62-2.59,37.88,37.88,0,0,0-2-8.82,2.67,2.67,0,0,0,1.25-3.48,39.75,39.75,0,0,0-8.74-12.51,2.66,2.66,0,0,0-3.54-.11,38.48,38.48,0,0,0-7.65-5.12,2.67,2.67,0,0,0-1.6-3.1,39.64,39.64,0,0,0-15-2.91,2.68,2.68,0,0,0-2.58,2A37.75,37.75,0,0,0,33.3,21.69a.89.89,0,0,0-.39.19.37.37,0,0,0-.06.09A38,38,0,0,0,15,54.13a.9.9,0,0,0,1.79,0,36,36,0,0,1,6.67-20.89L33,40.87a27.52,27.52,0,0,0-1.56,23.66l-22.26,7A47.11,47.11,0,0,1,17.4,23.45a2.69,2.69,0,0,0-4.07-3.52,52.54,52.54,0,0,0,39.76,86.88,2.68,2.68,0,1,0,0-5.37A47.24,47.24,0,0,1,9.9,73.22l6.58-2.08" transform="translate(-0.55 -1.75)"/><path class="a" d="M57.23,76.9a22.77,22.77,0,0,0,0-45.54,1.79,1.79,0,0,0,0,3.59,19.19,19.19,0,1,1,0,38.37,1.79,1.79,0,1,0,0,3.58" transform="translate(-0.55 -1.75)"/><path class="b" d="M62.29,83.61a29.36,29.36,0,0,0,6.61-2.34L68,79.73a28.55,28.55,0,0,1-6.11,2.14.9.9,0,0,0-.68,1.07.89.89,0,0,0,1.07.67" transform="translate(-0.55 -1.75)"/><path class="b" d="M71.13,78l.9,1.56A29.89,29.89,0,0,0,80.7,70.9L79.14,70a27.81,27.81,0,0,1-8,8" transform="translate(-0.55 -1.75)"/><path class="b" d="M79,38.46l1.55-.9A31.23,31.23,0,0,0,71.94,29L71,30.56a29.19,29.19,0,0,1,8,7.91" transform="translate(-0.55 -1.75)"/><path class="b" d="M80.9,66.88l1.56.9A30.45,30.45,0,0,0,85.57,56H83.77A28.58,28.58,0,0,1,80.9,66.88" transform="translate(-0.55 -1.75)"/><path class="b" d="M67.95,28.75l.89-1.56a30.26,30.26,0,0,0-6.53-2.43.89.89,0,0,0-.42,1.74,27.94,27.94,0,0,1,6.06,2.25" transform="translate(-0.55 -1.75)"/><path class="b" d="M82.34,40.66l-1.55.89a27.89,27.89,0,0,1,3,10.84h1.79a29.61,29.61,0,0,0-3.23-11.74" transform="translate(-0.55 -1.75)"/><path class="a" d="M70.36,54.34A13.13,13.13,0,1,1,57.23,41.21,13.13,13.13,0,0,1,70.36,54.34" transform="translate(-0.55 -1.75)"/><circle class="c" cx="52.54" cy="52.54" r="49.6"/><circle class="d" cx="52.67" cy="52.4" r="37.41"/><ellipse class="d" cx="56.01" cy="52.71" rx="25.68" ry="26.03"/><ellipse class="e" cx="55.64" cy="52.37" rx="28.51" ry="29.25"/><g class="f"><line class="g" x1="0.34" y1="119.91" x2="723.89" y2="119.91"/><line class="h" x1="0.34" y1="119.91" x2="723.89" y2="119.91"/></g><path class="i" d="M260.62,140.93c.83-2.87-.25-5-3.3-5-4.45,0-5.52,2.79-6,4.93-.41,1.91.19,3.09,1.81,3.75l4,1.65c4.81,1.95,5.37,3.79,4.59,7.43a10,10,0,0,1-10.33,8.27c-2.72,0-5.79-.77-6.61-4.38-.3-1.36.21-3.57.49-5h3.05c-1,4.08-.79,6.65,3.8,6.65,3.09,0,5.6-1.58,6.29-4.82.89-4.19-.79-4.23-3.36-5.3a48.86,48.86,0,0,1-5-2.13c-2.33-1.32-2.52-3.53-1.94-6.25a9.37,9.37,0,0,1,9.29-7.54c5,0,7.57,2.61,6.17,7.8Z" transform="translate(-0.55 -1.75)"/><path class="i" d="M277.86,154.46c-.67,4-3.44,7.35-7.74,7.35-3.86,0-6.07-2.57-4.31-10.81.92-4.3,3.43-10.74,8.83-10.74,6.62,0,4.92,6.25,4,11h-9.93c-.51,2.76-2.12,8.05,2,8.05,2.79,0,4.12-2.57,4.42-4.89Zm-1.68-5.55c.4-2.39,1.35-6.18-2-6.18s-4.26,3.75-4.88,6.18Z" transform="translate(-0.55 -1.75)"/><path class="i" d="M277.92,165.57c.43,0,1.65,0,2.07-.55a6.33,6.33,0,0,0,.9-2.68l4.58-21.51h2.9l-4.53,21.25c-1,4.78-2.49,6.18-6.5,6.18Zm8.29-28.2.78-3.68h2.91l-.78,3.68Z" transform="translate(-0.55 -1.75)"/><path class="i" d="M301.86,161.27a4.8,4.8,0,0,0-.69.15c-2.49.11-3.36-.11-3.06-2.9H298a6.8,6.8,0,0,1-5.23,3.31c-4.08,0-4.77-2.28-4-6a6.79,6.79,0,0,1,4-5c1.81-.74,6.26-2.28,6.69-2.57.73-.48.83-1.29,1.05-2.35.49-2.32-.2-3.2-2.55-3.2-2.65,0-3.27,1.21-3.75,3.6h-2.61c.75-4.23,3.24-6.07,7.36-6.07,6.07,0,4.47,5.07,4.37,5.55l-2.5,11.73c-.11.52-.34,1.25.19,1.54a3.5,3.5,0,0,0,1.24,0Zm-2.43-11c-1.61.85-3.37,1.47-5.07,2.21a4.72,4.72,0,0,0-2.55,3.53c-.44,2.06-.21,3.38,2.15,3.38a4.85,4.85,0,0,0,4.42-4.16Z" transform="translate(-0.55 -1.75)"/><path class="i" d="M315,161.27l5.88-27.58h7.87c5-.15,6.3,2.72,5.57,6.84-.54,3.05-1.94,5-5.41,6.07l0,.07c3.55.44,4.09,3.09,3.4,6.47-1.13,5.48-4.76,8.35-10,8.13Zm8.46-2.76c3.3,0,4.86-1.58,5.63-5.19,1.2-5.44-2.41-5.07-5.54-5.07h-2.72l-2.19,10.26Zm-2-13h2.72c3.67.18,6-.48,6.85-4.71.73-3.42-.31-4.41-5-4.34h-2.68Z" transform="translate(-0.55 -1.75)"/><path class="i" d="M348.32,154.46c-.67,4-3.44,7.35-7.74,7.35-3.86,0-6.07-2.57-4.31-10.81.92-4.3,3.43-10.74,8.83-10.74,6.62,0,4.92,6.25,4,11h-9.93c-.51,2.76-2.12,8.05,2,8.05,2.79,0,4.12-2.57,4.42-4.89Zm-1.68-5.55c.4-2.39,1.35-6.18-2-6.18s-4.26,3.75-4.88,6.18Z" transform="translate(-0.55 -1.75)"/><path class="i" d="M354.52,161.27h-2.9L356,140.82h2.79l-.56,2.61c1.4-1.73,3.47-3.16,5.6-3.16a4.1,4.1,0,0,1,4.16,3.24c1.88-2.1,3.6-3.24,6.17-3.24a4.47,4.47,0,0,1,3.44,1.43c1.07,1.21.51,3.49.23,4.78l-3.15,14.78h-2.9l3.19-15c.49-2.28.13-3.57-2.37-3.57a5.21,5.21,0,0,0-3,1.14,5.52,5.52,0,0,0-2.12,3.71l-2.91,13.68h-2.91l3.19-15c.46-2.13.06-3.57-2.29-3.57a5.09,5.09,0,0,0-3.11,1.14,5.42,5.42,0,0,0-2,3.71Z" transform="translate(-0.55 -1.75)"/><path class="i" d="M381.24,151.15l.65-3.05h8.93l-.65,3.05Z" transform="translate(-0.55 -1.75)"/><path class="i" d="M394.51,140.82h3l.8,18h.07l8.46-18h3l-10.5,20.44h-3.16Z" transform="translate(-0.55 -1.75)"/><path class="i" d="M408.65,161.27,413,140.82h2.9l-4.36,20.44Zm5.09-23.9.78-3.68h2.9l-.78,3.68Z" transform="translate(-0.55 -1.75)"/><path class="i" d="M423.56,143.06c1.85-1.76,3.57-2.79,5.78-2.79,3.05,0,4.69,1.62,3.93,5.22l-3.36,15.77H427l3.19-15c.45-2.13.06-3.57-2.29-3.57a5.09,5.09,0,0,0-3.11,1.14,5.52,5.52,0,0,0-2.12,3.71l-2.91,13.68h-2.9l4.36-20.44H424Z" transform="translate(-0.55 -1.75)"/><path class="i" d="M451.12,133.69H454l-5.88,27.58h-2.79l.57-2.68h-.07c-1.77,2.43-3.19,3.24-5.65,3.24-6.44,0-4-9-3.69-10.81,1.06-6,4.05-10.74,8.43-10.74,2.1,0,3.16.88,4.14,2.65h.07Zm-3.63,17c.6-2.79,1.63-8-2.27-8-2.43,0-4.42,1.91-5.76,8.2-.94,4.41-1.65,8.42,2.32,8.42,3,0,4.67-3.79,5.16-6.1Z" transform="translate(-0.55 -1.75)"/><path class="i" d="M460,161.82c-4.41,0-6.75-2.65-4.87-11.47,1.32-6.18,4.43-10.08,9.46-10.08s6.49,3.9,5.17,10.08C467.89,159.21,464.51,161.82,460,161.82Zm4.07-19.08c-3,0-4.8,2.35-6.12,8.53-1,4.82-.8,8.09,2.58,8.09s5-3.27,6-8.09C467.89,145.09,467.14,142.73,464.09,142.73Z" transform="translate(-0.55 -1.75)"/><path class="i" d="M473.78,161.27l.78-3.68h3.35l-.78,3.68Zm4.07-19.12,1.8-8.46H483l-1.8,8.46-3.49,12.39h-1.65Z" transform="translate(-0.55 -1.75)"/></svg>